<svg width="62" height="62" viewBox="0 0 62 62" fill="none" xmlns="http://www.w3.org/2000/svg">
<g filter="url(#filter0_d_11_187)">
<rect x="8" y="22.3533" width="35" height="35" rx="17.5" transform="rotate(-24.2109 8 22.3533)" fill="black" shape-rendering="crispEdges"/>
<g clip-path="url(#clip0_11_187)">
<path d="M43.0991 32.4L41.6421 37.613C41.6104 37.7263 41.5568 37.8293 41.4845 37.9157C41.4123 38.0022 41.323 38.0701 41.2223 38.1154L26.234 44.8548C26.1624 44.8869 26.082 44.895 26.0025 44.8781C25.9229 44.8611 25.8478 44.8199 25.7863 44.7593C25.7249 44.6988 25.6797 44.6217 25.6564 44.5374C25.6331 44.4532 25.6326 44.3654 25.6551 44.285L27.1145 39.0709C27.1461 38.958 27.1996 38.8552 27.2715 38.7689C27.3434 38.6826 27.4324 38.6147 27.5328 38.5693L42.5202 31.8302C42.5917 31.7981 42.6722 31.79 42.7518 31.8069C42.8312 31.8239 42.9063 31.8652 42.9679 31.9257C43.0294 31.9862 43.0745 32.0633 43.0978 32.1476C43.1211 32.2319 43.1216 32.3196 43.0991 32.4ZM36.5044 26.1869C36.3987 26.1355 36.286 26.1072 36.1734 26.1039C36.0608 26.1006 35.9507 26.1223 35.85 26.1676L20.8617 32.907C20.7902 32.9392 20.7307 32.994 20.6906 33.0648C20.6506 33.1355 20.6316 33.2191 20.636 33.3052C20.6405 33.3914 20.6682 33.4764 20.7158 33.5497C20.7634 33.623 20.8287 33.6816 20.9038 33.7181L25.7727 36.0867C25.8782 36.1381 25.9905 36.1663 26.1028 36.1698C26.2151 36.1732 26.3249 36.1518 26.4255 36.1068L41.413 29.3677C41.4845 29.3356 41.5439 29.2808 41.5841 29.21C41.6241 29.1393 41.643 29.0557 41.6387 28.9695C41.6342 28.8834 41.6064 28.7984 41.5589 28.725C41.5113 28.6517 41.446 28.5932 41.371 28.5566L36.5044 26.1869ZM19.7544 30.4445L34.7427 23.7051C34.8435 23.6598 34.9328 23.5919 35.005 23.5055C35.0773 23.419 35.1309 23.316 35.1626 23.2027L36.6196 17.9897C36.6421 17.9093 36.6416 17.8216 36.6183 17.7373C36.595 17.6531 36.5498 17.5759 36.4884 17.5154C36.4268 17.4549 36.3517 17.4137 36.2723 17.3967C36.1927 17.3797 36.1122 17.3878 36.0407 17.42L21.0532 24.159C20.9528 24.2044 20.8639 24.2723 20.792 24.3586C20.72 24.4449 20.6666 24.5477 20.635 24.6607L19.1764 29.8744C19.154 29.9547 19.1544 30.0424 19.1776 30.1265C19.2008 30.2107 19.2459 30.2878 19.3073 30.3484C19.3686 30.4089 19.4436 30.4502 19.5231 30.4673C19.6025 30.4844 19.6829 30.4765 19.7544 30.4445Z" fill="url(#paint0_linear_11_187)"/>
</g>
</g>
<defs>
<filter id="filter0_d_11_187" x="-5.3" y="-5.3" width="72.8749" height="72.8747" filterUnits="userSpaceOnUse" color-interpolation-filters="sRGB">
<feFlood flood-opacity="0" result="BackgroundImageFix"/>
<feColorMatrix in="SourceAlpha" type="matrix" values="0 0 0 0 0 0 0 0 0 0 0 0 0 0 0 0 0 0 127 0" result="hardAlpha"/>
<feOffset/>
<feGaussianBlur stdDeviation="6.65"/>
<feComposite in2="hardAlpha" operator="out"/>
<feColorMatrix type="matrix" values="0 0 0 0 0.765217 0 0 0 0 0.65 0 0 0 0 1 0 0 0 0.63 0"/>
<feBlend mode="normal" in2="BackgroundImageFix" result="effect1_dropShadow_11_187"/>
<feBlend mode="normal" in="SourceGraphic" in2="effect1_dropShadow_11_187" result="shape"/>
</filter>
<linearGradient id="paint0_linear_11_187" x1="27.6889" y1="44.7493" x2="37.3647" y2="18.9455" gradientUnits="userSpaceOnUse">
<stop offset="0.08" stop-color="#9945FF"/>
<stop offset="0.3" stop-color="#8752F3"/>
<stop offset="0.5" stop-color="#5497D5"/>
<stop offset="0.6" stop-color="#43B4CA"/>
<stop offset="0.72" stop-color="#28E0B9"/>
<stop offset="0.97" stop-color="#19FB9B"/>
</linearGradient>
<clipPath id="clip0_11_187">
<rect width="21" height="21" fill="white" transform="translate(17.2549 25.8669) rotate(-24.2109)"/>
</clipPath>
</defs>
</svg>
