<svg width="937" height="177" viewBox="0 0 937 177" fill="none" xmlns="http://www.w3.org/2000/svg">
    <path d="M937 -56H0H937ZM0.89 176.17H11.56H0.89ZM11.56 175.27H0.89V164.61H11.56V175.27ZM11.56 163.71H0.89V153.05H11.56V163.71ZM11.56 152.15H0.89V141.49H11.56V152.15ZM11.56 140.58H0.89V129.92H11.56V140.58ZM11.56 129.02H0.89V118.36H11.56V129.02ZM11.56 117.46H0.89V106.8H11.56V117.46ZM11.56 105.88H0.89V95.22H11.56V105.88ZM11.56 94.32H0.89V83.66H11.56V94.32ZM11.56 82.76H0.89V72.1H11.56V82.76ZM11.56 71.19H0.89V60.53H11.56V71.19ZM11.56 59.63H0.89V48.97H11.56V59.63ZM11.56 48.07H0.89V37.41H11.56V48.07ZM11.56 36.51H0.89V25.85H11.56V36.51ZM11.56 24.94H0.89V14.28H11.56V24.94ZM11.56 13.38H0.89V2.72H11.56V13.38ZM11.56 1.82H0.89V-8.84H11.56V1.82ZM11.56 -9.75H0.89V-20.41H11.56V-9.75ZM11.56 -21.31H0.89V-31.97H11.56V-21.31ZM11.56 -32.87H0.89V-43.53H11.56V-32.87ZM11.56 -44.44H0.89V-55.1H11.56V-44.44ZM12.45 176.17H23.12H12.45ZM23.12 175.27H12.45V164.61H23.12V175.27ZM23.12 163.71H12.45V153.05H23.12V163.71ZM23.12 152.15H12.45V141.49H23.12V152.15ZM23.12 140.58H12.45V129.92H23.12V140.58ZM23.12 129.02H12.45V118.36H23.12V129.02ZM23.12 117.46H12.45V106.8H23.12V117.46ZM23.12 105.88H12.45V95.22H23.12V105.88ZM23.12 94.32H12.45V83.66H23.12V94.32ZM23.12 82.76H12.45V72.1H23.12V82.76ZM23.12 71.19H12.45V60.53H23.12V71.19ZM23.12 59.63H12.45V48.97H23.12V59.63ZM23.12 48.07H12.45V37.41H23.12V48.07ZM23.12 36.51H12.45V25.85H23.12V36.51ZM23.12 24.94H12.45V14.28H23.12V24.94ZM23.12 13.38H12.45V2.72H23.12V13.38ZM23.12 1.82H12.45V-8.84H23.12V1.82ZM23.12 -9.75H12.45V-20.41H23.12V-9.75ZM23.12 -21.31H12.45V-31.97H23.12V-21.31ZM23.12 -32.87H12.45V-43.53H23.12V-32.87ZM23.12 -44.44H12.45V-55.1H23.12V-44.44ZM24.01 176.17H34.68H24.01ZM34.67 175.27H24V164.61H34.67V175.27ZM34.67 163.71H24V153.05H34.67V163.71ZM34.67 152.15H24V141.49H34.67V152.15ZM34.67 140.58H24V129.92H34.67V140.58ZM34.67 129.02H24V118.36H34.67V129.02ZM34.67 117.46H24V106.8H34.67V117.46ZM34.67 105.88H24V95.22H34.67V105.88ZM34.67 94.32H24V83.66H34.67V94.32ZM34.67 82.76H24V72.1H34.67V82.76ZM34.67 71.19H24V60.53H34.67V71.19ZM34.67 59.63H24V48.97H34.67V59.63ZM34.67 48.07H24V37.41H34.67V48.07ZM34.67 36.51H24V25.85H34.67V36.51ZM34.67 24.94H24V14.28H34.67V24.94ZM34.67 13.38H24V2.72H34.67V13.38ZM34.67 1.82H24V-8.84H34.67V1.82ZM34.67 -9.75H24V-20.41H34.67V-9.75ZM34.67 -21.31H24V-31.97H34.67V-21.31ZM34.67 -32.87H24V-43.53H34.67V-32.87ZM34.67 -44.44H24V-55.1H34.67V-44.44ZM35.56 176.17H46.23H35.56ZM46.23 175.27H35.56V164.61H46.23V175.27ZM46.23 163.71H35.56V153.05H46.23V163.71ZM46.23 152.15H35.56V141.49H46.23V152.15ZM46.23 140.58H35.56V129.92H46.23V140.58ZM46.23 129.02H35.56V118.36H46.23V129.02ZM46.23 117.46H35.56V106.8H46.23V117.46ZM46.23 105.88H35.56V95.22H46.23V105.88ZM46.23 94.32H35.56V83.66H46.23V94.32ZM46.23 82.76H35.56V72.1H46.23V82.76ZM46.23 71.19H35.56V60.53H46.23V71.19ZM46.23 59.63H35.56V48.97H46.23V59.63ZM46.23 48.07H35.56V37.41H46.23V48.07ZM46.23 36.51H35.56V25.85H46.23V36.51ZM46.23 24.94H35.56V14.28H46.23V24.94ZM46.23 13.38H35.56V2.72H46.23V13.38ZM46.23 1.82H35.56V-8.84H46.23V1.82ZM46.23 -9.75H35.56V-20.41H46.23V-9.75ZM46.23 -21.31H35.56V-31.97H46.23V-21.31ZM46.23 -32.87H35.56V-43.53H46.23V-32.87ZM46.23 -44.44H35.56V-55.1H46.23V-44.44ZM47.11 176.17H57.78H47.11ZM57.78 175.27H47.11V164.61H57.78V175.27ZM57.78 163.71H47.11V153.05H57.78V163.71ZM57.78 152.15H47.11V141.49H57.78V152.15ZM57.78 140.58H47.11V129.92H57.78V140.58ZM57.78 129.02H47.11V118.36H57.78V129.02ZM57.78 117.46H47.11V106.8H57.78V117.46ZM57.78 105.88H47.11V95.22H57.78V105.88ZM57.78 94.32H47.11V83.66H57.78V94.32ZM57.78 82.76H47.11V72.1H57.78V82.76ZM57.78 71.19H47.11V60.53H57.78V71.19ZM57.78 59.63H47.11V48.97H57.78V59.63ZM57.78 48.07H47.11V37.41H57.78V48.07ZM57.78 36.51H47.11V25.85H57.78V36.51ZM57.78 24.94H47.11V14.28H57.78V24.94ZM57.78 13.38H47.11V2.72H57.78V13.38ZM57.78 1.82H47.11V-8.84H57.78V1.82ZM57.78 -9.75H47.11V-20.41H57.78V-9.75ZM57.78 -21.31H47.11V-31.97H57.78V-21.31ZM57.78 -32.87H47.11V-43.53H57.78V-32.87ZM57.78 -44.44H47.11V-55.1H57.78V-44.44ZM58.67 176.17H69.34H58.67ZM69.34 175.27H58.67V164.61H69.34V175.27ZM69.34 163.71H58.67V153.05H69.34V163.71ZM69.34 152.15H58.67V141.49H69.34V152.15ZM69.34 140.58H58.67V129.92H69.34V140.58ZM69.34 129.02H58.67V118.36H69.34V129.02ZM69.34 117.46H58.67V106.8H69.34V117.46ZM69.34 105.88H58.67V95.22H69.34V105.88ZM69.34 94.32H58.67V83.66H69.34V94.32ZM69.34 82.76H58.67V72.1H69.34V82.76ZM69.34 71.19H58.67V60.53H69.34V71.19ZM69.34 59.63H58.67V48.97H69.34V59.63ZM69.34 48.07H58.67V37.41H69.34V48.07ZM69.34 36.51H58.67V25.85H69.34V36.51ZM69.34 24.94H58.67V14.28H69.34V24.94ZM69.34 13.38H58.67V2.72H69.34V13.38ZM69.34 1.82H58.67V-8.84H69.34V1.82ZM69.34 -9.75H58.67V-20.41H69.34V-9.75ZM69.34 -21.31H58.67V-31.97H69.34V-21.31ZM69.34 -32.87H58.67V-43.53H69.34V-32.87ZM69.34 -44.44H58.67V-55.1H69.34V-44.44ZM70.23 176.17H80.9H70.23ZM80.9 175.27H70.23V164.61H80.9V175.27ZM80.9 163.71H70.23V153.05H80.9V163.71ZM80.9 152.15H70.23V141.49H80.9V152.15ZM80.9 140.58H70.23V129.92H80.9V140.58ZM80.9 129.02H70.23V118.36H80.9V129.02ZM80.9 117.46H70.23V106.8H80.9V117.46ZM80.9 105.88H70.23V95.22H80.9V105.88ZM80.9 94.32H70.23V83.66H80.9V94.32ZM80.9 82.76H70.23V72.1H80.9V82.76ZM80.9 71.19H70.23V60.53H80.9V71.19ZM80.9 59.63H70.23V48.97H80.9V59.63ZM80.9 48.07H70.23V37.41H80.9V48.07ZM80.9 36.51H70.23V25.85H80.9V36.51ZM80.9 24.94H70.23V14.28H80.9V24.94ZM80.9 13.38H70.23V2.72H80.9V13.38ZM80.9 1.82H70.23V-8.84H80.9V1.82ZM80.9 -9.75H70.23V-20.41H80.9V-9.75ZM80.9 -21.31H70.23V-31.97H80.9V-21.31ZM80.9 -32.87H70.23V-43.53H80.9V-32.87ZM80.9 -44.44H70.23V-55.1H80.9V-44.44ZM81.79 176.17H92.46H81.79ZM92.45 175.27H81.78V164.61H92.45V175.27ZM92.45 163.71H81.78V153.05H92.45V163.71ZM92.45 152.15H81.78V141.49H92.45V152.15ZM92.45 140.58H81.78V129.92H92.45V140.58ZM92.45 129.02H81.78V118.36H92.45V129.02ZM92.45 117.46H81.78V106.8H92.45V117.46ZM92.45 105.88H81.78V95.22H92.45V105.88ZM92.45 94.32H81.78V83.66H92.45V94.32ZM92.45 82.76H81.78V72.1H92.45V82.76ZM92.45 71.19H81.78V60.53H92.45V71.19ZM92.45 59.63H81.78V48.97H92.45V59.63ZM92.45 48.07H81.78V37.41H92.45V48.07ZM92.45 36.51H81.78V25.85H92.45V36.51ZM92.45 24.94H81.78V14.28H92.45V24.94ZM92.45 13.38H81.78V2.72H92.45V13.38ZM92.45 1.82H81.78V-8.84H92.45V1.82ZM92.45 -9.75H81.78V-20.41H92.45V-9.75ZM92.45 -21.31H81.78V-31.97H92.45V-21.31ZM92.45 -32.87H81.78V-43.53H92.45V-32.87ZM92.45 -44.44H81.78V-55.1H92.45V-44.44ZM93.34 176.17H104.01H93.34ZM104.01 175.27H93.34V164.61H104.01V175.27ZM104.01 163.71H93.34V153.05H104.01V163.71ZM104.01 152.15H93.34V141.49H104.01V152.15ZM104.01 140.58H93.34V129.92H104.01V140.58ZM104.01 129.02H93.34V118.36H104.01V129.02ZM104.01 117.46H93.34V106.8H104.01V117.46ZM104.01 105.88H93.34V95.22H104.01V105.88ZM104.01 94.32H93.34V83.66H104.01V94.32ZM104.01 82.76H93.34V72.1H104.01V82.76ZM104.01 71.19H93.34V60.53H104.01V71.19ZM104.01 59.63H93.34V48.97H104.01V59.63ZM104.01 48.07H93.34V37.41H104.01V48.07ZM104.01 36.51H93.34V25.85H104.01V36.51ZM104.01 24.94H93.34V14.28H104.01V24.94ZM104.01 13.38H93.34V2.72H104.01V13.38ZM104.01 1.82H93.34V-8.84H104.01V1.82ZM104.01 -9.75H93.34V-20.41H104.01V-9.75ZM104.01 -21.31H93.34V-31.97H104.01V-21.31ZM104.01 -32.87H93.34V-43.53H104.01V-32.87ZM104.01 -44.44H93.34V-55.1H104.01V-44.44ZM104.9 176.17H115.57H104.9ZM115.57 175.27H104.9V164.61H115.57V175.27ZM115.57 163.71H104.9V153.05H115.57V163.71ZM115.57 152.15H104.9V141.49H115.57V152.15ZM115.57 140.58H104.9V129.92H115.57V140.58ZM115.57 129.02H104.9V118.36H115.57V129.02ZM115.57 117.46H104.9V106.8H115.57V117.46ZM115.57 105.88H104.9V95.22H115.57V105.88ZM115.57 94.32H104.9V83.66H115.57V94.32ZM115.57 82.76H104.9V72.1H115.57V82.76ZM115.57 71.19H104.9V60.53H115.57V71.19ZM115.57 59.63H104.9V48.97H115.57V59.63ZM115.57 48.07H104.9V37.41H115.57V48.07ZM115.57 36.51H104.9V25.85H115.57V36.51ZM115.57 24.94H104.9V14.28H115.57V24.94ZM115.57 13.38H104.9V2.72H115.57V13.38ZM115.57 1.82H104.9V-8.84H115.57V1.82ZM115.57 -9.75H104.9V-20.41H115.57V-9.75ZM115.57 -21.31H104.9V-31.97H115.57V-21.31ZM115.57 -32.87H104.9V-43.53H115.57V-32.87ZM115.57 -44.44H104.9V-55.1H115.57V-44.44ZM116.46 176.17H127.13H116.46ZM127.13 175.27H116.46V164.61H127.13V175.27ZM127.13 163.71H116.46V153.05H127.13V163.71ZM127.13 152.15H116.46V141.49H127.13V152.15ZM127.13 140.58H116.46V129.92H127.13V140.58ZM127.13 129.02H116.46V118.36H127.13V129.02ZM127.13 117.46H116.46V106.8H127.13V117.46ZM127.13 105.88H116.46V95.22H127.13V105.88ZM127.13 94.32H116.46V83.66H127.13V94.32ZM127.13 82.76H116.46V72.1H127.13V82.76ZM127.13 71.19H116.46V60.53H127.13V71.19ZM127.13 59.63H116.46V48.97H127.13V59.63ZM127.13 48.07H116.46V37.41H127.13V48.07ZM127.13 36.51H116.46V25.85H127.13V36.51ZM127.13 24.94H116.46V14.28H127.13V24.94ZM127.13 13.38H116.46V2.72H127.13V13.38ZM127.13 1.82H116.46V-8.84H127.13V1.82ZM127.13 -9.75H116.46V-20.41H127.13V-9.75ZM127.13 -21.31H116.46V-31.97H127.13V-21.31ZM127.13 -32.87H116.46V-43.53H127.13V-32.87ZM127.13 -44.44H116.46V-55.1H127.13V-44.44ZM128.02 176.17H138.69H128.02ZM138.69 175.27H128.02V164.61H138.69V175.27ZM138.69 163.71H128.02V153.05H138.69V163.71ZM138.69 152.15H128.02V141.49H138.69V152.15ZM138.69 140.58H128.02V129.92H138.69V140.58ZM138.69 129.02H128.02V118.36H138.69V129.02ZM138.69 117.46H128.02V106.8H138.69V117.46ZM138.69 105.88H128.02V95.22H138.69V105.88ZM138.69 94.32H128.02V83.66H138.69V94.32ZM138.69 82.76H128.02V72.1H138.69V82.76ZM138.69 71.19H128.02V60.53H138.69V71.19ZM138.69 59.63H128.02V48.97H138.69V59.63ZM138.69 48.07H128.02V37.41H138.69V48.07ZM138.69 36.51H128.02V25.85H138.69V36.51ZM138.69 24.94H128.02V14.28H138.69V24.94ZM138.69 13.38H128.02V2.72H138.69V13.38ZM138.69 1.82H128.02V-8.84H138.69V1.82ZM138.69 -9.75H128.02V-20.41H138.69V-9.75ZM138.69 -21.31H128.02V-31.97H138.69V-21.31ZM138.69 -32.87H128.02V-43.53H138.69V-32.87ZM138.69 -44.44H128.02V-55.1H138.69V-44.44ZM139.57 176.17H150.24H139.57ZM150.24 175.27H139.57V164.61H150.24V175.27ZM150.24 163.71H139.57V153.05H150.24V163.71ZM150.24 152.15H139.57V141.49H150.24V152.15ZM150.24 140.58H139.57V129.92H150.24V140.58ZM150.24 129.02H139.57V118.36H150.24V129.02ZM150.24 117.46H139.57V106.8H150.24V117.46ZM150.24 105.88H139.57V95.22H150.24V105.88ZM150.24 94.32H139.57V83.66H150.24V94.32ZM150.24 82.76H139.57V72.1H150.24V82.76ZM150.24 71.19H139.57V60.53H150.24V71.19ZM150.24 59.63H139.57V48.97H150.24V59.63ZM150.24 48.07H139.57V37.41H150.24V48.07ZM150.24 36.51H139.57V25.85H150.24V36.51ZM150.24 24.94H139.57V14.28H150.24V24.94ZM150.24 13.38H139.57V2.72H150.24V13.38ZM150.24 1.82H139.57V-8.84H150.24V1.82ZM150.24 -9.75H139.57V-20.41H150.24V-9.75ZM150.24 -21.31H139.57V-31.97H150.24V-21.31ZM150.24 -32.87H139.57V-43.53H150.24V-32.87ZM150.24 -44.44H139.57V-55.1H150.24V-44.44ZM151.12 176.17H161.79H151.12ZM161.79 175.27H151.12V164.61H161.79V175.27ZM161.79 163.71H151.12V153.05H161.79V163.71ZM161.79 152.15H151.12V141.49H161.79V152.15ZM161.79 140.58H151.12V129.92H161.79V140.58ZM161.79 129.02H151.12V118.36H161.79V129.02ZM161.79 117.46H151.12V106.8H161.79V117.46ZM161.79 105.88H151.12V95.22H161.79V105.88ZM161.79 94.32H151.12V83.66H161.79V94.32ZM161.79 82.76H151.12V72.1H161.79V82.76ZM161.79 71.19H151.12V60.53H161.79V71.19ZM161.79 59.63H151.12V48.97H161.79V59.63ZM161.79 48.07H151.12V37.41H161.79V48.07ZM161.79 36.51H151.12V25.85H161.79V36.51ZM161.79 24.94H151.12V14.28H161.79V24.94ZM161.79 13.38H151.12V2.72H161.79V13.38ZM161.79 1.82H151.12V-8.84H161.79V1.82ZM161.79 -9.75H151.12V-20.41H161.79V-9.75ZM161.79 -21.31H151.12V-31.97H161.79V-21.31ZM161.79 -32.87H151.12V-43.53H161.79V-32.87ZM161.79 -44.44H151.12V-55.1H161.79V-44.44ZM162.68 176.17H173.35H162.68ZM173.35 175.27H162.68V164.61H173.35V175.27ZM173.35 163.71H162.68V153.05H173.35V163.71ZM173.35 152.15H162.68V141.49H173.35V152.15ZM173.35 140.58H162.68V129.92H173.35V140.58ZM173.35 129.02H162.68V118.36H173.35V129.02ZM173.35 117.46H162.68V106.8H173.35V117.46ZM173.35 105.88H162.68V95.22H173.35V105.88ZM173.35 94.32H162.68V83.66H173.35V94.32ZM173.35 82.76H162.68V72.1H173.35V82.76ZM173.35 71.19H162.68V60.53H173.35V71.19ZM173.35 59.63H162.68V48.97H173.35V59.63ZM173.35 48.07H162.68V37.41H173.35V48.07ZM173.35 36.51H162.68V25.85H173.35V36.51ZM173.35 24.94H162.68V14.28H173.35V24.94ZM173.35 13.38H162.68V2.72H173.35V13.38ZM173.35 1.82H162.68V-8.84H173.35V1.82ZM173.35 -9.75H162.68V-20.41H173.35V-9.75ZM173.35 -21.31H162.68V-31.97H173.35V-21.31ZM173.35 -32.87H162.68V-43.53H173.35V-32.87ZM173.35 -44.44H162.68V-55.1H173.35V-44.44ZM174.24 176.17H184.91H174.24ZM184.91 175.27H174.24V164.61H184.91V175.27ZM184.91 163.71H174.24V153.05H184.91V163.71ZM184.91 152.15H174.24V141.49H184.91V152.15ZM184.91 140.58H174.24V129.92H184.91V140.58ZM184.91 129.02H174.24V118.36H184.91V129.02ZM184.91 117.46H174.24V106.8H184.91V117.46ZM184.91 105.88H174.24V95.22H184.91V105.88ZM184.91 94.32H174.24V83.66H184.91V94.32ZM184.91 82.76H174.24V72.1H184.91V82.76ZM184.91 71.19H174.24V60.53H184.91V71.19ZM184.91 59.63H174.24V48.97H184.91V59.63ZM184.91 48.07H174.24V37.41H184.91V48.07ZM184.91 36.51H174.24V25.85H184.91V36.51ZM184.91 24.94H174.24V14.28H184.91V24.94ZM184.91 13.38H174.24V2.72H184.91V13.38ZM184.91 1.82H174.24V-8.84H184.91V1.82ZM184.91 -9.75H174.24V-20.41H184.91V-9.75ZM184.91 -21.31H174.24V-31.97H184.91V-21.31ZM184.91 -32.87H174.24V-43.53H184.91V-32.87ZM184.91 -44.44H174.24V-55.1H184.91V-44.44ZM185.8 176.17H196.47H185.8ZM196.47 175.27H185.8V164.61H196.47V175.27ZM196.47 163.71H185.8V153.05H196.47V163.71ZM196.47 152.15H185.8V141.49H196.47V152.15ZM196.47 140.58H185.8V129.92H196.47V140.58ZM196.47 129.02H185.8V118.36H196.47V129.02ZM196.47 117.46H185.8V106.8H196.47V117.46ZM196.47 105.88H185.8V95.22H196.47V105.88ZM196.47 94.32H185.8V83.66H196.47V94.32ZM196.47 82.76H185.8V72.1H196.47V82.76ZM196.47 71.19H185.8V60.53H196.47V71.19ZM196.47 59.63H185.8V48.97H196.47V59.63ZM196.47 48.07H185.8V37.41H196.47V48.07ZM196.47 36.51H185.8V25.85H196.47V36.51ZM196.47 24.94H185.8V14.28H196.47V24.94ZM196.47 13.38H185.8V2.72H196.47V13.38ZM196.47 1.82H185.8V-8.84H196.47V1.82ZM196.47 -9.75H185.8V-20.41H196.47V-9.75ZM196.47 -21.31H185.8V-31.97H196.47V-21.31ZM196.47 -32.87H185.8V-43.53H196.47V-32.87ZM196.47 -44.44H185.8V-55.1H196.47V-44.44ZM197.36 176.17H208.03H197.36ZM208.02 175.27H197.35V164.61H208.02V175.27ZM208.02 163.71H197.35V153.05H208.02V163.71ZM208.02 152.15H197.35V141.49H208.02V152.15ZM208.02 140.58H197.35V129.92H208.02V140.58ZM208.02 129.02H197.35V118.36H208.02V129.02ZM208.02 117.46H197.35V106.8H208.02V117.46ZM208.02 105.88H197.35V95.22H208.02V105.88ZM208.02 94.32H197.35V83.66H208.02V94.32ZM208.02 82.76H197.35V72.1H208.02V82.76ZM208.02 71.19H197.35V60.53H208.02V71.19ZM208.02 59.63H197.35V48.97H208.02V59.63ZM208.02 48.07H197.35V37.41H208.02V48.07ZM208.02 36.51H197.35V25.85H208.02V36.51ZM208.02 24.94H197.35V14.28H208.02V24.94ZM208.02 13.38H197.35V2.72H208.02V13.38ZM208.02 1.82H197.35V-8.84H208.02V1.82ZM208.02 -9.75H197.35V-20.41H208.02V-9.75ZM208.02 -21.31H197.35V-31.97H208.02V-21.31ZM208.02 -32.87H197.35V-43.53H208.02V-32.87ZM208.02 -44.44H197.35V-55.1H208.02V-44.44ZM208.91 176.17H219.58H208.91ZM219.58 175.27H208.91V164.61H219.58V175.27ZM219.58 163.71H208.91V153.05H219.58V163.71ZM219.58 152.15H208.91V141.49H219.58V152.15ZM219.58 140.58H208.91V129.92H219.58V140.58ZM219.58 129.02H208.91V118.36H219.58V129.02ZM219.58 117.46H208.91V106.8H219.58V117.46ZM219.58 105.88H208.91V95.22H219.58V105.88ZM219.58 94.32H208.91V83.66H219.58V94.32ZM219.58 82.76H208.91V72.1H219.58V82.76ZM219.58 71.19H208.91V60.53H219.58V71.19ZM219.58 59.63H208.91V48.97H219.58V59.63ZM219.58 48.07H208.91V37.41H219.58V48.07ZM219.58 36.51H208.91V25.85H219.58V36.51ZM219.58 24.94H208.91V14.28H219.58V24.94ZM219.58 13.38H208.91V2.72H219.58V13.38ZM219.58 1.82H208.91V-8.84H219.58V1.82ZM219.58 -9.75H208.91V-20.41H219.58V-9.75ZM219.58 -21.31H208.91V-31.97H219.58V-21.31ZM219.58 -32.87H208.91V-43.53H219.58V-32.87ZM219.58 -44.44H208.91V-55.1H219.58V-44.44ZM220.47 176.17H231.14H220.47ZM231.14 175.27H220.47V164.61H231.14V175.27ZM231.14 163.71H220.47V153.05H231.14V163.71ZM231.14 152.15H220.47V141.49H231.14V152.15ZM231.14 140.58H220.47V129.92H231.14V140.58ZM231.14 129.02H220.47V118.36H231.14V129.02ZM231.14 117.46H220.47V106.8H231.14V117.46ZM231.14 105.88H220.47V95.22H231.14V105.88ZM231.14 94.32H220.47V83.66H231.14V94.32ZM231.14 82.76H220.47V72.1H231.14V82.76ZM231.14 71.19H220.47V60.53H231.14V71.19ZM231.14 59.63H220.47V48.97H231.14V59.63ZM231.14 48.07H220.47V37.41H231.14V48.07ZM231.14 36.51H220.47V25.85H231.14V36.51ZM231.14 24.94H220.47V14.28H231.14V24.94ZM231.14 13.38H220.47V2.72H231.14V13.38ZM231.14 1.82H220.47V-8.84H231.14V1.82ZM231.14 -9.75H220.47V-20.41H231.14V-9.75ZM231.14 -21.31H220.47V-31.97H231.14V-21.31ZM231.14 -32.87H220.47V-43.53H231.14V-32.87ZM231.14 -44.44H220.47V-55.1H231.14V-44.44ZM232.03 176.17H242.7H232.03ZM242.7 175.27H232.03V164.61H242.7V175.27ZM242.7 163.71H232.03V153.05H242.7V163.71ZM242.7 152.15H232.03V141.49H242.7V152.15ZM242.7 140.58H232.03V129.92H242.7V140.58ZM242.7 129.02H232.03V118.36H242.7V129.02ZM242.7 117.46H232.03V106.8H242.7V117.46ZM242.7 105.88H232.03V95.22H242.7V105.88ZM242.7 94.32H232.03V83.66H242.7V94.32ZM242.7 82.76H232.03V72.1H242.7V82.76ZM242.7 71.19H232.03V60.53H242.7V71.19ZM242.7 59.63H232.03V48.97H242.7V59.63ZM242.7 48.07H232.03V37.41H242.7V48.07ZM242.7 36.51H232.03V25.85H242.7V36.51ZM242.7 24.94H232.03V14.28H242.7V24.94ZM242.7 13.38H232.03V2.72H242.7V13.38ZM242.7 1.82H232.03V-8.84H242.7V1.82ZM242.7 -9.75H232.03V-20.41H242.7V-9.75ZM242.7 -21.31H232.03V-31.97H242.7V-21.31ZM242.7 -32.87H232.03V-43.53H242.7V-32.87ZM242.7 -44.44H232.03V-55.1H242.7V-44.44ZM243.58 176.17H254.25H243.58ZM254.25 175.27H243.58V164.61H254.25V175.27ZM254.25 163.71H243.58V153.05H254.25V163.71ZM254.25 152.15H243.58V141.49H254.25V152.15ZM254.25 140.58H243.58V129.92H254.25V140.58ZM254.25 129.02H243.58V118.36H254.25V129.02ZM254.25 117.46H243.58V106.8H254.25V117.46ZM254.25 105.88H243.58V95.22H254.25V105.88ZM254.25 94.32H243.58V83.66H254.25V94.32ZM254.25 82.76H243.58V72.1H254.25V82.76ZM254.25 71.19H243.58V60.53H254.25V71.19ZM254.25 59.63H243.58V48.97H254.25V59.63ZM254.25 48.07H243.58V37.41H254.25V48.07ZM254.25 36.51H243.58V25.85H254.25V36.51ZM254.25 24.94H243.58V14.28H254.25V24.94ZM254.25 13.38H243.58V2.72H254.25V13.38ZM254.25 1.82H243.58V-8.84H254.25V1.82ZM254.25 -9.75H243.58V-20.41H254.25V-9.75ZM254.25 -21.31H243.58V-31.97H254.25V-21.31ZM254.25 -32.87H243.58V-43.53H254.25V-32.87ZM254.25 -44.44H243.58V-55.1H254.25V-44.44ZM255.14 176.17H265.81H255.14ZM265.81 175.27H255.14V164.61H265.81V175.27ZM265.81 163.71H255.14V153.05H265.81V163.71ZM265.81 152.15H255.14V141.49H265.81V152.15ZM265.81 140.58H255.14V129.92H265.81V140.58ZM265.81 129.02H255.14V118.36H265.81V129.02ZM265.81 117.46H255.14V106.8H265.81V117.46ZM265.81 105.88H255.14V95.22H265.81V105.88ZM265.81 94.32H255.14V83.66H265.81V94.32ZM265.81 82.76H255.14V72.1H265.81V82.76ZM265.81 71.19H255.14V60.53H265.81V71.19ZM265.81 59.63H255.14V48.97H265.81V59.63ZM265.81 48.07H255.14V37.41H265.81V48.07ZM265.81 36.51H255.14V25.85H265.81V36.51ZM265.81 24.94H255.14V14.28H265.81V24.94ZM265.81 13.38H255.14V2.72H265.81V13.38ZM265.81 1.82H255.14V-8.84H265.81V1.82ZM265.81 -9.75H255.14V-20.41H265.81V-9.75ZM265.81 -21.31H255.14V-31.97H265.81V-21.31ZM265.81 -32.87H255.14V-43.53H265.81V-32.87ZM265.81 -44.44H255.14V-55.1H265.81V-44.44ZM266.69 176.17H277.36H266.69ZM277.36 175.27H266.69V164.61H277.36V175.27ZM277.36 163.71H266.69V153.05H277.36V163.71ZM277.36 152.15H266.69V141.49H277.36V152.15ZM277.36 140.58H266.69V129.92H277.36V140.58ZM277.36 129.02H266.69V118.36H277.36V129.02ZM277.36 117.46H266.69V106.8H277.36V117.46ZM277.36 105.88H266.69V95.22H277.36V105.88ZM277.36 94.32H266.69V83.66H277.36V94.32ZM277.36 82.76H266.69V72.1H277.36V82.76ZM277.36 71.19H266.69V60.53H277.36V71.19ZM277.36 59.63H266.69V48.97H277.36V59.63ZM277.36 48.07H266.69V37.41H277.36V48.07ZM277.36 36.51H266.69V25.85H277.36V36.51ZM277.36 24.94H266.69V14.28H277.36V24.94ZM277.36 13.38H266.69V2.72H277.36V13.38ZM277.36 1.82H266.69V-8.84H277.36V1.82ZM277.36 -9.75H266.69V-20.41H277.36V-9.75ZM277.36 -21.31H266.69V-31.97H277.36V-21.31ZM277.36 -32.87H266.69V-43.53H277.36V-32.87ZM277.36 -44.44H266.69V-55.1H277.36V-44.44ZM278.25 176.17H288.92H278.25ZM288.92 175.27H278.25V164.61H288.92V175.27ZM288.92 163.71H278.25V153.05H288.92V163.71ZM288.92 152.15H278.25V141.49H288.92V152.15ZM288.92 140.58H278.25V129.92H288.92V140.58ZM288.92 129.02H278.25V118.36H288.92V129.02ZM288.92 117.46H278.25V106.8H288.92V117.46ZM288.92 105.88H278.25V95.22H288.92V105.88ZM288.92 94.32H278.25V83.66H288.92V94.32ZM288.92 82.76H278.25V72.1H288.92V82.76ZM288.92 71.19H278.25V60.53H288.92V71.19ZM288.92 59.63H278.25V48.97H288.92V59.63ZM288.92 48.07H278.25V37.41H288.92V48.07ZM288.92 36.51H278.25V25.85H288.92V36.51ZM288.92 24.94H278.25V14.28H288.92V24.94ZM288.92 13.38H278.25V2.72H288.92V13.38ZM288.92 1.82H278.25V-8.84H288.92V1.82ZM288.92 -9.75H278.25V-20.41H288.92V-9.75ZM288.92 -21.31H278.25V-31.97H288.92V-21.31ZM288.92 -32.87H278.25V-43.53H288.92V-32.87ZM288.92 -44.44H278.25V-55.1H288.92V-44.44ZM289.81 176.17H300.48H289.81ZM300.48 175.27H289.81V164.61H300.48V175.27ZM300.48 163.71H289.81V153.05H300.48V163.71ZM300.48 152.15H289.81V141.49H300.48V152.15ZM300.48 140.58H289.81V129.92H300.48V140.58ZM300.48 129.02H289.81V118.36H300.48V129.02ZM300.48 117.46H289.81V106.8H300.48V117.46ZM300.48 105.88H289.81V95.22H300.48V105.88ZM300.48 94.32H289.81V83.66H300.48V94.32ZM300.48 82.76H289.81V72.1H300.48V82.76ZM300.48 71.19H289.81V60.53H300.48V71.19ZM300.48 59.63H289.81V48.97H300.48V59.63ZM300.48 48.07H289.81V37.41H300.48V48.07ZM300.48 36.51H289.81V25.85H300.48V36.51ZM300.48 24.94H289.81V14.28H300.48V24.94ZM300.48 13.38H289.81V2.72H300.48V13.38ZM300.48 1.82H289.81V-8.84H300.48V1.82ZM300.48 -9.75H289.81V-20.41H300.48V-9.75ZM300.48 -21.31H289.81V-31.97H300.48V-21.31ZM300.48 -32.87H289.81V-43.53H300.48V-32.87ZM300.48 -44.44H289.81V-55.1H300.48V-44.44ZM301.37 176.17H312.04H301.37ZM312.04 175.27H301.37V164.61H312.04V175.27ZM312.04 163.71H301.37V153.05H312.04V163.71ZM312.04 152.15H301.37V141.49H312.04V152.15ZM312.04 140.58H301.37V129.92H312.04V140.58ZM312.04 129.02H301.37V118.36H312.04V129.02ZM312.04 117.46H301.37V106.8H312.04V117.46ZM312.04 105.88H301.37V95.22H312.04V105.88ZM312.04 94.32H301.37V83.66H312.04V94.32ZM312.04 82.76H301.37V72.1H312.04V82.76ZM312.04 71.19H301.37V60.53H312.04V71.19ZM312.04 59.63H301.37V48.97H312.04V59.63ZM312.04 48.07H301.37V37.41H312.04V48.07ZM312.04 36.51H301.37V25.85H312.04V36.51ZM312.04 24.94H301.37V14.28H312.04V24.94ZM312.04 13.38H301.37V2.72H312.04V13.38ZM312.04 1.82H301.37V-8.84H312.04V1.82ZM312.04 -9.75H301.37V-20.41H312.04V-9.75ZM312.04 -21.31H301.37V-31.97H312.04V-21.31ZM312.04 -32.87H301.37V-43.53H312.04V-32.87ZM312.04 -44.44H301.37V-55.1H312.04V-44.44ZM312.93 176.17H323.6H312.93ZM323.59 175.27H312.92V164.61H323.59V175.27ZM323.59 163.71H312.92V153.05H323.59V163.71ZM323.59 152.15H312.92V141.49H323.59V152.15ZM323.59 140.58H312.92V129.92H323.59V140.58ZM323.59 129.02H312.92V118.36H323.59V129.02ZM323.59 117.46H312.92V106.8H323.59V117.46ZM323.59 105.88H312.92V95.22H323.59V105.88ZM323.59 94.32H312.92V83.66H323.59V94.32ZM323.59 82.76H312.92V72.1H323.59V82.76ZM323.59 71.19H312.92V60.53H323.59V71.19ZM323.59 59.63H312.92V48.97H323.59V59.63ZM323.59 48.07H312.92V37.41H323.59V48.07ZM323.59 36.51H312.92V25.85H323.59V36.51ZM323.59 24.94H312.92V14.28H323.59V24.94ZM323.59 13.38H312.92V2.72H323.59V13.38ZM323.59 1.82H312.92V-8.84H323.59V1.82ZM323.59 -9.75H312.92V-20.41H323.59V-9.75ZM323.59 -21.31H312.92V-31.97H323.59V-21.31ZM323.59 -32.87H312.92V-43.53H323.59V-32.87ZM323.59 -44.44H312.92V-55.1H323.59V-44.44ZM324.48 176.17H335.15H324.48ZM335.15 175.27H324.48V164.61H335.15V175.27ZM335.15 163.71H324.48V153.05H335.15V163.71ZM335.15 152.15H324.48V141.49H335.15V152.15ZM335.15 140.58H324.48V129.92H335.15V140.58ZM335.15 129.02H324.48V118.36H335.15V129.02ZM335.15 117.46H324.48V106.8H335.15V117.46ZM335.15 105.88H324.48V95.22H335.15V105.88ZM335.15 94.32H324.48V83.66H335.15V94.32ZM335.15 82.76H324.48V72.1H335.15V82.76ZM335.15 71.19H324.48V60.53H335.15V71.19ZM335.15 59.63H324.48V48.97H335.15V59.63ZM335.15 48.07H324.48V37.41H335.15V48.07ZM335.15 36.51H324.48V25.85H335.15V36.51ZM335.15 24.94H324.48V14.28H335.15V24.94ZM335.15 13.38H324.48V2.72H335.15V13.38ZM335.15 1.82H324.48V-8.84H335.15V1.82ZM335.15 -9.75H324.48V-20.41H335.15V-9.75ZM335.15 -21.31H324.48V-31.97H335.15V-21.31ZM335.15 -32.87H324.48V-43.53H335.15V-32.87ZM335.15 -44.44H324.48V-55.1H335.15V-44.44ZM336.04 176.17H346.71H336.04ZM346.71 175.27H336.04V164.61H346.71V175.27ZM346.71 163.71H336.04V153.05H346.71V163.71ZM346.71 152.15H336.04V141.49H346.71V152.15ZM346.71 140.58H336.04V129.92H346.71V140.58ZM346.71 129.02H336.04V118.36H346.71V129.02ZM346.71 117.46H336.04V106.8H346.71V117.46ZM346.71 105.88H336.04V95.22H346.71V105.88ZM346.71 94.32H336.04V83.66H346.71V94.32ZM346.71 82.76H336.04V72.1H346.71V82.76ZM346.71 71.19H336.04V60.53H346.71V71.19ZM346.71 59.63H336.04V48.97H346.71V59.63ZM346.71 48.07H336.04V37.41H346.71V48.07ZM346.71 36.51H336.04V25.85H346.71V36.51ZM346.71 24.94H336.04V14.28H346.71V24.94ZM346.71 13.38H336.04V2.72H346.71V13.38ZM346.71 1.82H336.04V-8.84H346.71V1.82ZM346.71 -9.75H336.04V-20.41H346.71V-9.75ZM346.71 -21.31H336.04V-31.97H346.71V-21.31ZM346.71 -32.87H336.04V-43.53H346.71V-32.87ZM346.71 -44.44H336.04V-55.1H346.71V-44.44ZM347.59 176.17H358.26H347.59ZM358.26 175.27H347.59V164.61H358.26V175.27ZM358.26 163.71H347.59V153.05H358.26V163.71ZM358.26 152.15H347.59V141.49H358.26V152.15ZM358.26 140.58H347.59V129.92H358.26V140.58ZM358.26 129.02H347.59V118.36H358.26V129.02ZM358.26 117.46H347.59V106.8H358.26V117.46ZM358.26 105.88H347.59V95.22H358.26V105.88ZM358.26 94.32H347.59V83.66H358.26V94.32ZM358.26 82.76H347.59V72.1H358.26V82.76ZM358.26 71.19H347.59V60.53H358.26V71.19ZM358.26 59.63H347.59V48.97H358.26V59.63ZM358.26 48.07H347.59V37.41H358.26V48.07ZM358.26 36.51H347.59V25.85H358.26V36.51ZM358.26 24.94H347.59V14.28H358.26V24.94ZM358.26 13.38H347.59V2.72H358.26V13.38ZM358.26 1.82H347.59V-8.84H358.26V1.82ZM358.26 -9.75H347.59V-20.41H358.26V-9.75ZM358.26 -21.31H347.59V-31.97H358.26V-21.31ZM358.26 -32.87H347.59V-43.53H358.26V-32.87ZM358.26 -44.44H347.59V-55.1H358.26V-44.44ZM359.15 176.17H369.82H359.15ZM369.82 175.27H359.15V164.61H369.82V175.27ZM369.82 163.71H359.15V153.05H369.82V163.71ZM369.82 152.15H359.15V141.49H369.82V152.15ZM369.82 140.58H359.15V129.92H369.82V140.58ZM369.82 129.02H359.15V118.36H369.82V129.02ZM369.82 117.46H359.15V106.8H369.82V117.46ZM369.82 105.88H359.15V95.22H369.82V105.88ZM369.82 94.32H359.15V83.66H369.82V94.32ZM369.82 82.76H359.15V72.1H369.82V82.76ZM369.82 71.19H359.15V60.53H369.82V71.19ZM369.82 59.63H359.15V48.97H369.82V59.63ZM369.82 48.07H359.15V37.41H369.82V48.07ZM369.82 36.51H359.15V25.85H369.82V36.51ZM369.82 24.94H359.15V14.28H369.82V24.94ZM369.82 13.38H359.15V2.72H369.82V13.38ZM369.82 1.82H359.15V-8.84H369.82V1.82ZM369.82 -9.75H359.15V-20.41H369.82V-9.75ZM369.82 -21.31H359.15V-31.97H369.82V-21.31ZM369.82 -32.87H359.15V-43.53H369.82V-32.87ZM369.82 -44.44H359.15V-55.1H369.82V-44.44ZM370.71 176.17H381.38H370.71ZM381.38 175.27H370.71V164.61H381.38V175.27ZM381.38 163.71H370.71V153.05H381.38V163.71ZM381.38 152.15H370.71V141.49H381.38V152.15ZM381.38 140.58H370.71V129.92H381.38V140.58ZM381.38 129.02H370.71V118.36H381.38V129.02ZM381.38 117.46H370.71V106.8H381.38V117.46ZM381.38 105.88H370.71V95.22H381.38V105.88ZM381.38 94.32H370.71V83.66H381.38V94.32ZM381.38 82.76H370.71V72.1H381.38V82.76ZM381.38 71.19H370.71V60.53H381.38V71.19ZM381.38 59.63H370.71V48.97H381.38V59.63ZM381.38 48.07H370.71V37.41H381.38V48.07ZM381.38 36.51H370.71V25.85H381.38V36.51ZM381.38 24.94H370.71V14.28H381.38V24.94ZM381.38 13.38H370.71V2.72H381.38V13.38ZM381.38 1.82H370.71V-8.84H381.38V1.82ZM381.38 -9.75H370.71V-20.41H381.38V-9.75ZM381.38 -21.31H370.71V-31.97H381.38V-21.31ZM381.38 -32.87H370.71V-43.53H381.38V-32.87ZM381.38 -44.44H370.71V-55.1H381.38V-44.44ZM382.26 176.17H392.93H382.26ZM392.93 175.27H382.26V164.61H392.93V175.27ZM392.93 163.71H382.26V153.05H392.93V163.71ZM392.93 152.15H382.26V141.49H392.93V152.15ZM392.93 140.58H382.26V129.92H392.93V140.58ZM392.93 129.02H382.26V118.36H392.93V129.02ZM392.93 117.46H382.26V106.8H392.93V117.46ZM392.93 105.88H382.26V95.22H392.93V105.88ZM392.93 94.32H382.26V83.66H392.93V94.32ZM392.93 82.76H382.26V72.1H392.93V82.76ZM392.93 71.19H382.26V60.53H392.93V71.19ZM392.93 59.63H382.26V48.97H392.93V59.63ZM392.93 48.07H382.26V37.41H392.93V48.07ZM392.93 36.51H382.26V25.85H392.93V36.51ZM392.93 24.94H382.26V14.28H392.93V24.94ZM392.93 13.38H382.26V2.72H392.93V13.38ZM392.93 1.82H382.26V-8.84H392.93V1.82ZM392.93 -9.75H382.26V-20.41H392.93V-9.75ZM392.93 -21.31H382.26V-31.97H392.93V-21.31ZM392.93 -32.87H382.26V-43.53H392.93V-32.87ZM392.93 -44.44H382.26V-55.1H392.93V-44.44ZM393.82 176.17H404.49H393.82ZM404.49 175.27H393.82V164.61H404.49V175.27ZM404.49 163.71H393.82V153.05H404.49V163.71ZM404.49 152.15H393.82V141.49H404.49V152.15ZM404.49 140.58H393.82V129.92H404.49V140.58ZM404.49 129.02H393.82V118.36H404.49V129.02ZM404.49 117.46H393.82V106.8H404.49V117.46ZM404.49 105.88H393.82V95.22H404.49V105.88ZM404.49 94.32H393.82V83.66H404.49V94.32ZM404.49 82.76H393.82V72.1H404.49V82.76ZM404.49 71.19H393.82V60.53H404.49V71.19ZM404.49 59.63H393.82V48.97H404.49V59.63ZM404.49 48.07H393.82V37.41H404.49V48.07ZM404.49 36.51H393.82V25.85H404.49V36.51ZM404.49 24.94H393.82V14.28H404.49V24.94ZM404.49 13.38H393.82V2.72H404.49V13.38ZM404.49 1.82H393.82V-8.84H404.49V1.82ZM404.49 -9.75H393.82V-20.41H404.49V-9.75ZM404.49 -21.31H393.82V-31.97H404.49V-21.31ZM404.49 -32.87H393.82V-43.53H404.49V-32.87ZM404.49 -44.44H393.82V-55.1H404.49V-44.44ZM405.38 176.17H416.05H405.38ZM416.05 175.27H405.38V164.61H416.05V175.27ZM416.05 163.71H405.38V153.05H416.05V163.71ZM416.05 152.15H405.38V141.49H416.05V152.15ZM416.05 140.58H405.38V129.92H416.05V140.58ZM416.05 129.02H405.38V118.36H416.05V129.02ZM416.05 117.46H405.38V106.8H416.05V117.46ZM416.05 105.88H405.38V95.22H416.05V105.88ZM416.05 94.32H405.38V83.66H416.05V94.32ZM416.05 82.76H405.38V72.1H416.05V82.76ZM416.05 71.19H405.38V60.53H416.05V71.19ZM416.05 59.63H405.38V48.97H416.05V59.63ZM416.05 48.07H405.38V37.41H416.05V48.07ZM416.05 36.51H405.38V25.85H416.05V36.51ZM416.05 24.94H405.38V14.28H416.05V24.94ZM416.05 13.38H405.38V2.72H416.05V13.38ZM416.05 1.82H405.38V-8.84H416.05V1.82ZM416.05 -9.75H405.38V-20.41H416.05V-9.75ZM416.05 -21.31H405.38V-31.97H416.05V-21.31ZM416.05 -32.87H405.38V-43.53H416.05V-32.87ZM416.05 -44.44H405.38V-55.1H416.05V-44.44ZM416.94 176.17H427.61H416.94ZM427.61 175.27H416.94V164.61H427.61V175.27ZM427.61 163.71H416.94V153.05H427.61V163.71ZM427.61 152.15H416.94V141.49H427.61V152.15ZM427.61 140.58H416.94V129.92H427.61V140.58ZM427.61 129.02H416.94V118.36H427.61V129.02ZM427.61 117.46H416.94V106.8H427.61V117.46ZM427.61 105.88H416.94V95.22H427.61V105.88ZM427.61 94.32H416.94V83.66H427.61V94.32ZM427.61 82.76H416.94V72.1H427.61V82.76ZM427.61 71.19H416.94V60.53H427.61V71.19ZM427.61 59.63H416.94V48.97H427.61V59.63ZM427.61 48.07H416.94V37.41H427.61V48.07ZM427.61 36.51H416.94V25.85H427.61V36.51ZM427.61 24.94H416.94V14.28H427.61V24.94ZM427.61 13.38H416.94V2.72H427.61V13.38ZM427.61 1.82H416.94V-8.84H427.61V1.82ZM427.61 -9.75H416.94V-20.41H427.61V-9.75ZM427.61 -21.31H416.94V-31.97H427.61V-21.31ZM427.61 -32.87H416.94V-43.53H427.61V-32.87ZM427.61 -44.44H416.94V-55.1H427.61V-44.44ZM428.5 176.17H439.17H428.5ZM439.16 175.27H428.49V164.61H439.16V175.27ZM439.16 163.71H428.49V153.05H439.16V163.71ZM439.16 152.15H428.49V141.49H439.16V152.15ZM439.16 140.58H428.49V129.92H439.16V140.58ZM439.16 129.02H428.49V118.36H439.16V129.02ZM439.16 117.46H428.49V106.8H439.16V117.46ZM439.16 105.88H428.49V95.22H439.16V105.88ZM439.16 94.32H428.49V83.66H439.16V94.32ZM439.16 82.76H428.49V72.1H439.16V82.76ZM439.16 71.19H428.49V60.53H439.16V71.19ZM439.16 59.63H428.49V48.97H439.16V59.63ZM439.16 48.07H428.49V37.41H439.16V48.07ZM439.16 36.51H428.49V25.85H439.16V36.51ZM439.16 24.94H428.49V14.28H439.16V24.94ZM439.16 13.38H428.49V2.72H439.16V13.38ZM439.16 1.82H428.49V-8.84H439.16V1.82ZM439.16 -9.75H428.49V-20.41H439.16V-9.75ZM439.16 -21.31H428.49V-31.97H439.16V-21.31ZM439.16 -32.87H428.49V-43.53H439.16V-32.87ZM439.16 -44.44H428.49V-55.1H439.16V-44.44ZM440.05 176.17H450.72H440.05ZM450.72 175.27H440.05V164.61H450.72V175.27ZM450.72 163.71H440.05V153.05H450.72V163.71ZM450.72 152.15H440.05V141.49H450.72V152.15ZM450.72 140.58H440.05V129.92H450.72V140.58ZM450.72 129.02H440.05V118.36H450.72V129.02ZM450.72 117.46H440.05V106.8H450.72V117.46ZM450.72 105.88H440.05V95.22H450.72V105.88ZM450.72 94.32H440.05V83.66H450.72V94.32ZM450.72 82.76H440.05V72.1H450.72V82.76ZM450.72 71.19H440.05V60.53H450.72V71.19ZM450.72 59.63H440.05V48.97H450.72V59.63ZM450.72 48.07H440.05V37.41H450.72V48.07ZM450.72 36.51H440.05V25.85H450.72V36.51ZM450.72 24.94H440.05V14.28H450.72V24.94ZM450.72 13.38H440.05V2.72H450.72V13.38ZM450.72 1.82H440.05V-8.84H450.72V1.82ZM450.72 -9.75H440.05V-20.41H450.72V-9.75ZM450.72 -21.31H440.05V-31.97H450.72V-21.31ZM450.72 -32.87H440.05V-43.53H450.72V-32.87ZM450.72 -44.44H440.05V-55.1H450.72V-44.44ZM451.6 176.17H462.27H451.6ZM462.27 175.27H451.6V164.61H462.27V175.27ZM462.27 163.71H451.6V153.05H462.27V163.71ZM462.27 152.15H451.6V141.49H462.27V152.15ZM462.27 140.58H451.6V129.92H462.27V140.58ZM462.27 129.02H451.6V118.36H462.27V129.02ZM462.27 117.46H451.6V106.8H462.27V117.46ZM462.27 105.88H451.6V95.22H462.27V105.88ZM462.27 94.32H451.6V83.66H462.27V94.32ZM462.27 82.76H451.6V72.1H462.27V82.76ZM462.27 71.19H451.6V60.53H462.27V71.19ZM462.27 59.63H451.6V48.97H462.27V59.63ZM462.27 48.07H451.6V37.41H462.27V48.07ZM462.27 36.51H451.6V25.85H462.27V36.51ZM462.27 24.94H451.6V14.28H462.27V24.94ZM462.27 13.38H451.6V2.72H462.27V13.38ZM462.27 1.82H451.6V-8.84H462.27V1.82ZM462.27 -9.75H451.6V-20.41H462.27V-9.75ZM462.27 -21.31H451.6V-31.97H462.27V-21.31ZM462.27 -32.87H451.6V-43.53H462.27V-32.87ZM462.27 -44.44H451.6V-55.1H462.27V-44.44ZM463.16 176.17H473.83H463.16ZM473.83 175.27H463.16V164.61H473.83V175.27ZM473.83 163.71H463.16V153.05H473.83V163.71ZM473.83 152.15H463.16V141.49H473.83V152.15ZM473.83 140.58H463.16V129.92H473.83V140.58ZM473.83 129.02H463.16V118.36H473.83V129.02ZM473.83 117.46H463.16V106.8H473.83V117.46ZM473.83 105.88H463.16V95.22H473.83V105.88ZM473.83 94.32H463.16V83.66H473.83V94.32ZM473.83 82.76H463.16V72.1H473.83V82.76ZM473.83 71.19H463.16V60.53H473.83V71.19ZM473.83 59.63H463.16V48.97H473.83V59.63ZM473.83 48.07H463.16V37.41H473.83V48.07ZM473.83 36.51H463.16V25.85H473.83V36.51ZM473.83 24.94H463.16V14.28H473.83V24.94ZM473.83 13.38H463.16V2.72H473.83V13.38ZM473.83 1.82H463.16V-8.84H473.83V1.82ZM473.83 -9.75H463.16V-20.41H473.83V-9.75ZM473.83 -21.31H463.16V-31.97H473.83V-21.31ZM473.83 -32.87H463.16V-43.53H473.83V-32.87ZM473.83 -44.44H463.16V-55.1H473.83V-44.44ZM474.72 176.17H485.39H474.72ZM485.39 175.27H474.72V164.61H485.39V175.27ZM485.39 163.71H474.72V153.05H485.39V163.71ZM485.39 152.15H474.72V141.49H485.39V152.15ZM485.39 140.58H474.72V129.92H485.39V140.58ZM485.39 129.02H474.72V118.36H485.39V129.02ZM485.39 117.46H474.72V106.8H485.39V117.46ZM485.39 105.88H474.72V95.22H485.39V105.88ZM485.39 94.32H474.72V83.66H485.39V94.32ZM485.39 82.76H474.72V72.1H485.39V82.76ZM485.39 71.19H474.72V60.53H485.39V71.19ZM485.39 59.63H474.72V48.97H485.39V59.63ZM485.39 48.07H474.72V37.41H485.39V48.07ZM485.39 36.51H474.72V25.85H485.39V36.51ZM485.39 24.94H474.72V14.28H485.39V24.94ZM485.39 13.38H474.72V2.72H485.39V13.38ZM485.39 1.82H474.72V-8.84H485.39V1.82ZM485.39 -9.75H474.72V-20.41H485.39V-9.75ZM485.39 -21.31H474.72V-31.97H485.39V-21.31ZM485.39 -32.87H474.72V-43.53H485.39V-32.87ZM485.39 -44.44H474.72V-55.1H485.39V-44.44ZM486.28 176.17H496.95H486.28ZM496.95 175.27H486.28V164.61H496.95V175.27ZM496.95 163.71H486.28V153.05H496.95V163.71ZM496.95 152.15H486.28V141.49H496.95V152.15ZM496.95 140.58H486.28V129.92H496.95V140.58ZM496.95 129.02H486.28V118.36H496.95V129.02ZM496.95 117.46H486.28V106.8H496.95V117.46ZM496.95 105.88H486.28V95.22H496.95V105.88ZM496.95 94.32H486.28V83.66H496.95V94.32ZM496.95 82.76H486.28V72.1H496.95V82.76ZM496.95 71.19H486.28V60.53H496.95V71.19ZM496.95 59.63H486.28V48.97H496.95V59.63ZM496.95 48.07H486.28V37.41H496.95V48.07ZM496.95 36.51H486.28V25.85H496.95V36.51ZM496.95 24.94H486.28V14.28H496.95V24.94ZM496.95 13.38H486.28V2.72H496.95V13.38ZM496.95 1.82H486.28V-8.84H496.95V1.82ZM496.95 -9.75H486.28V-20.41H496.95V-9.75ZM496.95 -21.31H486.28V-31.97H496.95V-21.31ZM496.95 -32.87H486.28V-43.53H496.95V-32.87ZM496.95 -44.44H486.28V-55.1H496.95V-44.44ZM497.84 176.17H508.51H497.84ZM508.5 175.27H497.83V164.61H508.5V175.27ZM508.5 163.71H497.83V153.05H508.5V163.71ZM508.5 152.15H497.83V141.49H508.5V152.15ZM508.5 140.58H497.83V129.92H508.5V140.58ZM508.5 129.02H497.83V118.36H508.5V129.02ZM508.5 117.46H497.83V106.8H508.5V117.46ZM508.5 105.88H497.83V95.22H508.5V105.88ZM508.5 94.32H497.83V83.66H508.5V94.32ZM508.5 82.76H497.83V72.1H508.5V82.76ZM508.5 71.19H497.83V60.53H508.5V71.19ZM508.5 59.63H497.83V48.97H508.5V59.63ZM508.5 48.07H497.83V37.41H508.5V48.07ZM508.5 36.51H497.83V25.85H508.5V36.51ZM508.5 24.94H497.83V14.28H508.5V24.94ZM508.5 13.38H497.83V2.72H508.5V13.38ZM508.5 1.82H497.83V-8.84H508.5V1.82ZM508.5 -9.75H497.83V-20.41H508.5V-9.75ZM508.5 -21.31H497.83V-31.97H508.5V-21.31ZM508.5 -32.87H497.83V-43.53H508.5V-32.87ZM508.5 -44.44H497.83V-55.1H508.5V-44.44ZM509.39 176.17H520.06H509.39ZM520.06 175.27H509.39V164.61H520.06V175.27ZM520.06 163.71H509.39V153.05H520.06V163.71ZM520.06 152.15H509.39V141.49H520.06V152.15ZM520.06 140.58H509.39V129.92H520.06V140.58ZM520.06 129.02H509.39V118.36H520.06V129.02ZM520.06 117.46H509.39V106.8H520.06V117.46ZM520.06 105.88H509.39V95.22H520.06V105.88ZM520.06 94.32H509.39V83.66H520.06V94.32ZM520.06 82.76H509.39V72.1H520.06V82.76ZM520.06 71.19H509.39V60.53H520.06V71.19ZM520.06 59.63H509.39V48.97H520.06V59.63ZM520.06 48.07H509.39V37.41H520.06V48.07ZM520.06 36.51H509.39V25.85H520.06V36.51ZM520.06 24.94H509.39V14.28H520.06V24.94ZM520.06 13.38H509.39V2.72H520.06V13.38ZM520.06 1.82H509.39V-8.84H520.06V1.82ZM520.06 -9.75H509.39V-20.41H520.06V-9.75ZM520.06 -21.31H509.39V-31.97H520.06V-21.31ZM520.06 -32.87H509.39V-43.53H520.06V-32.87ZM520.06 -44.44H509.39V-55.1H520.06V-44.44ZM520.95 176.17H531.62H520.95ZM531.62 175.27H520.95V164.61H531.62V175.27ZM531.62 163.71H520.95V153.05H531.62V163.71ZM531.62 152.15H520.95V141.49H531.62V152.15ZM531.62 140.58H520.95V129.92H531.62V140.58ZM531.62 129.02H520.95V118.36H531.62V129.02ZM531.62 117.46H520.95V106.8H531.62V117.46ZM531.62 105.88H520.95V95.22H531.62V105.88ZM531.62 94.32H520.95V83.66H531.62V94.32ZM531.62 82.76H520.95V72.1H531.62V82.76ZM531.62 71.19H520.95V60.53H531.62V71.19ZM531.62 59.63H520.95V48.97H531.62V59.63ZM531.62 48.07H520.95V37.41H531.62V48.07ZM531.62 36.51H520.95V25.85H531.62V36.51ZM531.62 24.94H520.95V14.28H531.62V24.94ZM531.62 13.38H520.95V2.72H531.62V13.38ZM531.62 1.82H520.95V-8.84H531.62V1.82ZM531.62 -9.75H520.95V-20.41H531.62V-9.75ZM531.62 -21.31H520.95V-31.97H531.62V-21.31ZM531.62 -32.87H520.95V-43.53H531.62V-32.87ZM531.62 -44.44H520.95V-55.1H531.62V-44.44ZM532.51 176.17H543.18H532.51ZM543.18 175.27H532.51V164.61H543.18V175.27ZM543.18 163.71H532.51V153.05H543.18V163.71ZM543.18 152.15H532.51V141.49H543.18V152.15ZM543.18 140.58H532.51V129.92H543.18V140.58ZM543.18 129.02H532.51V118.36H543.18V129.02ZM543.18 117.46H532.51V106.8H543.18V117.46ZM543.18 105.88H532.51V95.22H543.18V105.88ZM543.18 94.32H532.51V83.66H543.18V94.32ZM543.18 82.76H532.51V72.1H543.18V82.76ZM543.18 71.19H532.51V60.53H543.18V71.19ZM543.18 59.63H532.51V48.97H543.18V59.63ZM543.18 48.07H532.51V37.41H543.18V48.07ZM543.18 36.51H532.51V25.85H543.18V36.51ZM543.18 24.94H532.51V14.28H543.18V24.94ZM543.18 13.38H532.51V2.72H543.18V13.38ZM543.18 1.82H532.51V-8.84H543.18V1.82ZM543.18 -9.75H532.51V-20.41H543.18V-9.75ZM543.18 -21.31H532.51V-31.97H543.18V-21.31ZM543.18 -32.87H532.51V-43.53H543.18V-32.87ZM543.18 -44.44H532.51V-55.1H543.18V-44.44ZM544.07 176.17H554.74H544.07ZM554.73 175.27H544.06V164.61H554.73V175.27ZM554.73 163.71H544.06V153.05H554.73V163.71ZM554.73 152.15H544.06V141.49H554.73V152.15ZM554.73 140.58H544.06V129.92H554.73V140.58ZM554.73 129.02H544.06V118.36H554.73V129.02ZM554.73 117.46H544.06V106.8H554.73V117.46ZM554.73 105.88H544.06V95.22H554.73V105.88ZM554.73 94.32H544.06V83.66H554.73V94.32ZM554.73 82.76H544.06V72.1H554.73V82.76ZM554.73 71.19H544.06V60.53H554.73V71.19ZM554.73 59.63H544.06V48.97H554.73V59.63ZM554.73 48.07H544.06V37.41H554.73V48.07ZM554.73 36.51H544.06V25.85H554.73V36.51ZM554.73 24.94H544.06V14.28H554.73V24.94ZM554.73 13.38H544.06V2.72H554.73V13.38ZM554.73 1.82H544.06V-8.84H554.73V1.82ZM554.73 -9.75H544.06V-20.41H554.73V-9.75ZM554.73 -21.31H544.06V-31.97H554.73V-21.31ZM554.73 -32.87H544.06V-43.53H554.73V-32.87ZM554.73 -44.44H544.06V-55.1H554.73V-44.44ZM555.62 176.17H566.29H555.62ZM566.28 175.27H555.61V164.61H566.28V175.27ZM566.28 163.71H555.61V153.05H566.28V163.71ZM566.28 152.15H555.61V141.49H566.28V152.15ZM566.28 140.58H555.61V129.92H566.28V140.58ZM566.28 129.02H555.61V118.36H566.28V129.02ZM566.28 117.46H555.61V106.8H566.28V117.46ZM566.28 105.88H555.61V95.22H566.28V105.88ZM566.28 94.32H555.61V83.66H566.28V94.32ZM566.28 82.76H555.61V72.1H566.28V82.76ZM566.28 71.19H555.61V60.53H566.28V71.19ZM566.28 59.63H555.61V48.97H566.28V59.63ZM566.28 48.07H555.61V37.41H566.28V48.07ZM566.28 36.51H555.61V25.85H566.28V36.51ZM566.28 24.94H555.61V14.28H566.28V24.94ZM566.28 13.38H555.61V2.72H566.28V13.38ZM566.28 1.82H555.61V-8.84H566.28V1.82ZM566.28 -9.75H555.61V-20.41H566.28V-9.75ZM566.28 -21.31H555.61V-31.97H566.28V-21.31ZM566.28 -32.87H555.61V-43.53H566.28V-32.87ZM566.28 -44.44H555.61V-55.1H566.28V-44.44ZM567.17 176.17H577.84H567.17ZM577.84 175.27H567.17V164.61H577.84V175.27ZM577.84 163.71H567.17V153.05H577.84V163.71ZM577.84 152.15H567.17V141.49H577.84V152.15ZM577.84 140.58H567.17V129.92H577.84V140.58ZM577.84 129.02H567.17V118.36H577.84V129.02ZM577.84 117.46H567.17V106.8H577.84V117.46ZM577.84 105.88H567.17V95.22H577.84V105.88ZM577.84 94.32H567.17V83.66H577.84V94.32ZM577.84 82.76H567.17V72.1H577.84V82.76ZM577.84 71.19H567.17V60.53H577.84V71.19ZM577.84 59.63H567.17V48.97H577.84V59.63ZM577.84 48.07H567.17V37.41H577.84V48.07ZM577.84 36.51H567.17V25.85H577.84V36.51ZM577.84 24.94H567.17V14.28H577.84V24.94ZM577.84 13.38H567.17V2.72H577.84V13.38ZM577.84 1.82H567.17V-8.84H577.84V1.82ZM577.84 -9.75H567.17V-20.41H577.84V-9.75ZM577.84 -21.31H567.17V-31.97H577.84V-21.31ZM577.84 -32.87H567.17V-43.53H577.84V-32.87ZM577.84 -44.44H567.17V-55.1H577.84V-44.44ZM578.73 176.17H589.4H578.73ZM589.4 175.27H578.73V164.61H589.4V175.27ZM589.4 163.71H578.73V153.05H589.4V163.71ZM589.4 152.15H578.73V141.49H589.4V152.15ZM589.4 140.58H578.73V129.92H589.4V140.58ZM589.4 129.02H578.73V118.36H589.4V129.02ZM589.4 117.46H578.73V106.8H589.4V117.46ZM589.4 105.88H578.73V95.22H589.4V105.88ZM589.4 94.32H578.73V83.66H589.4V94.32ZM589.4 82.76H578.73V72.1H589.4V82.76ZM589.4 71.19H578.73V60.53H589.4V71.19ZM589.4 59.63H578.73V48.97H589.4V59.63ZM589.4 48.07H578.73V37.41H589.4V48.07ZM589.4 36.51H578.73V25.85H589.4V36.51ZM589.4 24.94H578.73V14.28H589.4V24.94ZM589.4 13.38H578.73V2.72H589.4V13.38ZM589.4 1.82H578.73V-8.84H589.4V1.82ZM589.4 -9.75H578.73V-20.41H589.4V-9.75ZM589.4 -21.31H578.73V-31.97H589.4V-21.31ZM589.4 -32.87H578.73V-43.53H589.4V-32.87ZM589.4 -44.44H578.73V-55.1H589.4V-44.44ZM590.29 176.17H600.96H590.29ZM600.96 175.27H590.29V164.61H600.96V175.27ZM600.96 163.71H590.29V153.05H600.96V163.71ZM600.96 152.15H590.29V141.49H600.96V152.15ZM600.96 140.58H590.29V129.92H600.96V140.58ZM600.96 129.02H590.29V118.36H600.96V129.02ZM600.96 117.46H590.29V106.8H600.96V117.46ZM600.96 105.88H590.29V95.22H600.96V105.88ZM600.96 94.32H590.29V83.66H600.96V94.32ZM600.96 82.76H590.29V72.1H600.96V82.76ZM600.96 71.19H590.29V60.53H600.96V71.19ZM600.96 59.63H590.29V48.97H600.96V59.63ZM600.96 48.07H590.29V37.41H600.96V48.07ZM600.96 36.51H590.29V25.85H600.96V36.51ZM600.96 24.94H590.29V14.28H600.96V24.94ZM600.96 13.38H590.29V2.72H600.96V13.38ZM600.96 1.82H590.29V-8.84H600.96V1.82ZM600.96 -9.75H590.29V-20.41H600.96V-9.75ZM600.96 -21.31H590.29V-31.97H600.96V-21.31ZM600.96 -32.87H590.29V-43.53H600.96V-32.87ZM600.96 -44.44H590.29V-55.1H600.96V-44.44ZM601.85 176.17H612.52H601.85ZM612.52 175.27H601.85V164.61H612.52V175.27ZM612.52 163.71H601.85V153.05H612.52V163.71ZM612.52 152.15H601.85V141.49H612.52V152.15ZM612.52 140.58H601.85V129.92H612.52V140.58ZM612.52 129.02H601.85V118.36H612.52V129.02ZM612.52 117.46H601.85V106.8H612.52V117.46ZM612.52 105.88H601.85V95.22H612.52V105.88ZM612.52 94.32H601.85V83.66H612.52V94.32ZM612.52 82.76H601.85V72.1H612.52V82.76ZM612.52 71.19H601.85V60.53H612.52V71.19ZM612.52 59.63H601.85V48.97H612.52V59.63ZM612.52 48.07H601.85V37.41H612.52V48.07ZM612.52 36.51H601.85V25.85H612.52V36.51ZM612.52 24.94H601.85V14.28H612.52V24.94ZM612.52 13.38H601.85V2.72H612.52V13.38ZM612.52 1.82H601.85V-8.84H612.52V1.82ZM612.52 -9.75H601.85V-20.41H612.52V-9.75ZM612.52 -21.31H601.85V-31.97H612.52V-21.31ZM612.52 -32.87H601.85V-43.53H612.52V-32.87ZM612.52 -44.44H601.85V-55.1H612.52V-44.44ZM613.4 176.17H624.07H613.4ZM624.07 175.27H613.4V164.61H624.07V175.27ZM624.07 163.71H613.4V153.05H624.07V163.71ZM624.07 152.15H613.4V141.49H624.07V152.15ZM624.07 140.58H613.4V129.92H624.07V140.58ZM624.07 129.02H613.4V118.36H624.07V129.02ZM624.07 117.46H613.4V106.8H624.07V117.46ZM624.07 105.88H613.4V95.22H624.07V105.88ZM624.07 94.32H613.4V83.66H624.07V94.32ZM624.07 82.76H613.4V72.1H624.07V82.76ZM624.07 71.19H613.4V60.53H624.07V71.19ZM624.07 59.63H613.4V48.97H624.07V59.63ZM624.07 48.07H613.4V37.41H624.07V48.07ZM624.07 36.51H613.4V25.85H624.07V36.51ZM624.07 24.94H613.4V14.28H624.07V24.94ZM624.07 13.38H613.4V2.72H624.07V13.38ZM624.07 1.82H613.4V-8.84H624.07V1.82ZM624.07 -9.75H613.4V-20.41H624.07V-9.75ZM624.07 -21.31H613.4V-31.97H624.07V-21.31ZM624.07 -32.87H613.4V-43.53H624.07V-32.87ZM624.07 -44.44H613.4V-55.1H624.07V-44.44ZM624.96 176.17H635.63H624.96ZM635.63 175.27H624.96V164.61H635.63V175.27ZM635.63 163.71H624.96V153.05H635.63V163.71ZM635.63 152.15H624.96V141.49H635.63V152.15ZM635.63 140.58H624.96V129.92H635.63V140.58ZM635.63 129.02H624.96V118.36H635.63V129.02ZM635.63 117.46H624.96V106.8H635.63V117.46ZM635.63 105.88H624.96V95.22H635.63V105.88ZM635.63 94.32H624.96V83.66H635.63V94.32ZM635.63 82.76H624.96V72.1H635.63V82.76ZM635.63 71.19H624.96V60.53H635.63V71.19ZM635.63 59.63H624.96V48.97H635.63V59.63ZM635.63 48.07H624.96V37.41H635.63V48.07ZM635.63 36.51H624.96V25.85H635.63V36.51ZM635.63 24.94H624.96V14.28H635.63V24.94ZM635.63 13.38H624.96V2.72H635.63V13.38ZM635.63 1.82H624.96V-8.84H635.63V1.82ZM635.63 -9.75H624.96V-20.41H635.63V-9.75ZM635.63 -21.31H624.96V-31.97H635.63V-21.31ZM635.63 -32.87H624.96V-43.53H635.63V-32.87ZM635.63 -44.44H624.96V-55.1H635.63V-44.44ZM636.52 176.17H647.19H636.52ZM647.19 175.27H636.52V164.61H647.19V175.27ZM647.19 163.71H636.52V153.05H647.19V163.71ZM647.19 152.15H636.52V141.49H647.19V152.15ZM647.19 140.58H636.52V129.92H647.19V140.58ZM647.19 129.02H636.52V118.36H647.19V129.02ZM647.19 117.46H636.52V106.8H647.19V117.46ZM647.19 105.88H636.52V95.22H647.19V105.88ZM647.19 94.32H636.52V83.66H647.19V94.32ZM647.19 82.76H636.52V72.1H647.19V82.76ZM647.19 71.19H636.52V60.53H647.19V71.19ZM647.19 59.63H636.52V48.97H647.19V59.63ZM647.19 48.07H636.52V37.41H647.19V48.07ZM647.19 36.51H636.52V25.85H647.19V36.51ZM647.19 24.94H636.52V14.28H647.19V24.94ZM647.19 13.38H636.52V2.72H647.19V13.38ZM647.19 1.82H636.52V-8.84H647.19V1.82ZM647.19 -9.75H636.52V-20.41H647.19V-9.75ZM647.19 -21.31H636.52V-31.97H647.19V-21.31ZM647.19 -32.87H636.52V-43.53H647.19V-32.87ZM647.19 -44.44H636.52V-55.1H647.19V-44.44ZM648.07 176.17H658.74H648.07ZM658.74 175.27H648.07V164.61H658.74V175.27ZM658.74 163.71H648.07V153.05H658.74V163.71ZM658.74 152.15H648.07V141.49H658.74V152.15ZM658.74 140.58H648.07V129.92H658.74V140.58ZM658.74 129.02H648.07V118.36H658.74V129.02ZM658.74 117.46H648.07V106.8H658.74V117.46ZM658.74 105.88H648.07V95.22H658.74V105.88ZM658.74 94.32H648.07V83.66H658.74V94.32ZM658.74 82.76H648.07V72.1H658.74V82.76ZM658.74 71.19H648.07V60.53H658.74V71.19ZM658.74 59.63H648.07V48.97H658.74V59.63ZM658.74 48.07H648.07V37.41H658.74V48.07ZM658.74 36.51H648.07V25.85H658.74V36.51ZM658.74 24.94H648.07V14.28H658.74V24.94ZM658.74 13.38H648.07V2.72H658.74V13.38ZM658.74 1.82H648.07V-8.84H658.74V1.82ZM658.74 -9.75H648.07V-20.41H658.74V-9.75ZM658.74 -21.31H648.07V-31.97H658.74V-21.31ZM658.74 -32.87H648.07V-43.53H658.74V-32.87ZM658.74 -44.44H648.07V-55.1H658.74V-44.44ZM659.63 176.17H670.3H659.63ZM670.3 175.27H659.63V164.61H670.3V175.27ZM670.3 163.71H659.63V153.05H670.3V163.71ZM670.3 152.15H659.63V141.49H670.3V152.15ZM670.3 140.58H659.63V129.92H670.3V140.58ZM670.3 129.02H659.63V118.36H670.3V129.02ZM670.3 117.46H659.63V106.8H670.3V117.46ZM670.3 105.88H659.63V95.22H670.3V105.88ZM670.3 94.32H659.63V83.66H670.3V94.32ZM670.3 82.76H659.63V72.1H670.3V82.76ZM670.3 71.19H659.63V60.53H670.3V71.19ZM670.3 59.63H659.63V48.97H670.3V59.63ZM670.3 48.07H659.63V37.41H670.3V48.07ZM670.3 36.51H659.63V25.85H670.3V36.51ZM670.3 24.94H659.63V14.28H670.3V24.94ZM670.3 13.38H659.63V2.72H670.3V13.38ZM670.3 1.82H659.63V-8.84H670.3V1.82ZM670.3 -9.75H659.63V-20.41H670.3V-9.75ZM670.3 -21.31H659.63V-31.97H670.3V-21.31ZM670.3 -32.87H659.63V-43.53H670.3V-32.87ZM670.3 -44.44H659.63V-55.1H670.3V-44.44ZM671.19 176.17H681.86H671.19ZM681.86 175.27H671.19V164.61H681.86V175.27ZM681.86 163.71H671.19V153.05H681.86V163.71ZM681.86 152.15H671.19V141.49H681.86V152.15ZM681.86 140.58H671.19V129.92H681.86V140.58ZM681.86 129.02H671.19V118.36H681.86V129.02ZM681.86 117.46H671.19V106.8H681.86V117.46ZM681.86 105.88H671.19V95.22H681.86V105.88ZM681.86 94.32H671.19V83.66H681.86V94.32ZM681.86 82.76H671.19V72.1H681.86V82.76ZM681.86 71.19H671.19V60.53H681.86V71.19ZM681.86 59.63H671.19V48.97H681.86V59.63ZM681.86 48.07H671.19V37.41H681.86V48.07ZM681.86 36.51H671.19V25.85H681.86V36.51ZM681.86 24.94H671.19V14.28H681.86V24.94ZM681.86 13.38H671.19V2.72H681.86V13.38ZM681.86 1.82H671.19V-8.84H681.86V1.82ZM681.86 -9.75H671.19V-20.41H681.86V-9.75ZM681.86 -21.31H671.19V-31.97H681.86V-21.31ZM681.86 -32.87H671.19V-43.53H681.86V-32.87ZM681.86 -44.44H671.19V-55.1H681.86V-44.44ZM682.74 176.17H693.41H682.74ZM693.41 175.27H682.74V164.61H693.41V175.27ZM693.41 163.71H682.74V153.05H693.41V163.71ZM693.41 152.15H682.74V141.49H693.41V152.15ZM693.41 140.58H682.74V129.92H693.41V140.58ZM693.41 129.02H682.74V118.36H693.41V129.02ZM693.41 117.46H682.74V106.8H693.41V117.46ZM693.41 105.88H682.74V95.22H693.41V105.88ZM693.41 94.32H682.74V83.66H693.41V94.32ZM693.41 82.76H682.74V72.1H693.41V82.76ZM693.41 71.19H682.74V60.53H693.41V71.19ZM693.41 59.63H682.74V48.97H693.41V59.63ZM693.41 48.07H682.74V37.41H693.41V48.07ZM693.41 36.51H682.74V25.85H693.41V36.51ZM693.41 24.94H682.74V14.28H693.41V24.94ZM693.41 13.38H682.74V2.72H693.41V13.38ZM693.41 1.82H682.74V-8.84H693.41V1.82ZM693.41 -9.75H682.74V-20.41H693.41V-9.75ZM693.41 -21.31H682.74V-31.97H693.41V-21.31ZM693.41 -32.87H682.74V-43.53H693.41V-32.87ZM693.41 -44.44H682.74V-55.1H693.41V-44.44ZM694.3 176.17H704.97H694.3ZM704.97 175.27H694.3V164.61H704.97V175.27ZM704.97 163.71H694.3V153.05H704.97V163.71ZM704.97 152.15H694.3V141.49H704.97V152.15ZM704.97 140.58H694.3V129.92H704.97V140.58ZM704.97 129.02H694.3V118.36H704.97V129.02ZM704.97 117.46H694.3V106.8H704.97V117.46ZM704.97 105.88H694.3V95.22H704.97V105.88ZM704.97 94.32H694.3V83.66H704.97V94.32ZM704.97 82.76H694.3V72.1H704.97V82.76ZM704.97 71.19H694.3V60.53H704.97V71.19ZM704.97 59.63H694.3V48.97H704.97V59.63ZM704.97 48.07H694.3V37.41H704.97V48.07ZM704.97 36.51H694.3V25.85H704.97V36.51ZM704.97 24.94H694.3V14.28H704.97V24.94ZM704.97 13.38H694.3V2.72H704.97V13.38ZM704.97 1.82H694.3V-8.84H704.97V1.82ZM704.97 -9.75H694.3V-20.41H704.97V-9.75ZM704.97 -21.31H694.3V-31.97H704.97V-21.31ZM704.97 -32.87H694.3V-43.53H704.97V-32.87ZM704.97 -44.44H694.3V-55.1H704.97V-44.44ZM705.86 176.17H716.53H705.86ZM716.53 175.27H705.86V164.61H716.53V175.27ZM716.53 163.71H705.86V153.05H716.53V163.71ZM716.53 152.15H705.86V141.49H716.53V152.15ZM716.53 140.58H705.86V129.92H716.53V140.58ZM716.53 129.02H705.86V118.36H716.53V129.02ZM716.53 117.46H705.86V106.8H716.53V117.46ZM716.53 105.88H705.86V95.22H716.53V105.88ZM716.53 94.32H705.86V83.66H716.53V94.32ZM716.53 82.76H705.86V72.1H716.53V82.76ZM716.53 71.19H705.86V60.53H716.53V71.19ZM716.53 59.63H705.86V48.97H716.53V59.63ZM716.53 48.07H705.86V37.41H716.53V48.07ZM716.53 36.51H705.86V25.85H716.53V36.51ZM716.53 24.94H705.86V14.28H716.53V24.94ZM716.53 13.38H705.86V2.72H716.53V13.38ZM716.53 1.82H705.86V-8.84H716.53V1.82ZM716.53 -9.75H705.86V-20.41H716.53V-9.75ZM716.53 -21.31H705.86V-31.97H716.53V-21.31ZM716.53 -32.87H705.86V-43.53H716.53V-32.87ZM716.53 -44.44H705.86V-55.1H716.53V-44.44ZM717.42 176.17H728.09H717.42ZM728.09 175.27H717.42V164.61H728.09V175.27ZM728.09 163.71H717.42V153.05H728.09V163.71ZM728.09 152.15H717.42V141.49H728.09V152.15ZM728.09 140.58H717.42V129.92H728.09V140.58ZM728.09 129.02H717.42V118.36H728.09V129.02ZM728.09 117.46H717.42V106.8H728.09V117.46ZM728.09 105.88H717.42V95.22H728.09V105.88ZM728.09 94.32H717.42V83.66H728.09V94.32ZM728.09 82.76H717.42V72.1H728.09V82.76ZM728.09 71.19H717.42V60.53H728.09V71.19ZM728.09 59.63H717.42V48.97H728.09V59.63ZM728.09 48.07H717.42V37.41H728.09V48.07ZM728.09 36.51H717.42V25.85H728.09V36.51ZM728.09 24.94H717.42V14.28H728.09V24.94ZM728.09 13.38H717.42V2.72H728.09V13.38ZM728.09 1.82H717.42V-8.84H728.09V1.82ZM728.09 -9.75H717.42V-20.41H728.09V-9.75ZM728.09 -21.31H717.42V-31.97H728.09V-21.31ZM728.09 -32.87H717.42V-43.53H728.09V-32.87ZM728.09 -44.44H717.42V-55.1H728.09V-44.44ZM728.98 176.17H739.65H728.98ZM739.64 175.27H728.97V164.61H739.64V175.27ZM739.64 163.71H728.97V153.05H739.64V163.71ZM739.64 152.15H728.97V141.49H739.64V152.15ZM739.64 140.58H728.97V129.92H739.64V140.58ZM739.64 129.02H728.97V118.36H739.64V129.02ZM739.64 117.46H728.97V106.8H739.64V117.46ZM739.64 105.88H728.97V95.22H739.64V105.88ZM739.64 94.32H728.97V83.66H739.64V94.32ZM739.64 82.76H728.97V72.1H739.64V82.76ZM739.64 71.19H728.97V60.53H739.64V71.19ZM739.64 59.63H728.97V48.97H739.64V59.63ZM739.64 48.07H728.97V37.41H739.64V48.07ZM739.64 36.51H728.97V25.85H739.64V36.51ZM739.64 24.94H728.97V14.28H739.64V24.94ZM739.64 13.38H728.97V2.72H739.64V13.38ZM739.64 1.82H728.97V-8.84H739.64V1.82ZM739.64 -9.75H728.97V-20.41H739.64V-9.75ZM739.64 -21.31H728.97V-31.97H739.64V-21.31ZM739.64 -32.87H728.97V-43.53H739.64V-32.87ZM739.64 -44.44H728.97V-55.1H739.64V-44.44ZM740.53 176.17H751.2H740.53ZM751.2 175.27H740.53V164.61H751.2V175.27ZM751.2 163.71H740.53V153.05H751.2V163.71ZM751.2 152.15H740.53V141.49H751.2V152.15ZM751.2 140.58H740.53V129.92H751.2V140.58ZM751.2 129.02H740.53V118.36H751.2V129.02ZM751.2 117.46H740.53V106.8H751.2V117.46ZM751.2 105.88H740.53V95.22H751.2V105.88ZM751.2 94.32H740.53V83.66H751.2V94.32ZM751.2 82.76H740.53V72.1H751.2V82.76ZM751.2 71.19H740.53V60.53H751.2V71.19ZM751.2 59.63H740.53V48.97H751.2V59.63ZM751.2 48.07H740.53V37.41H751.2V48.07ZM751.2 36.51H740.53V25.85H751.2V36.51ZM751.2 24.94H740.53V14.28H751.2V24.94ZM751.2 13.38H740.53V2.72H751.2V13.38ZM751.2 1.82H740.53V-8.84H751.2V1.82ZM751.2 -9.75H740.53V-20.41H751.2V-9.75ZM751.2 -21.31H740.53V-31.97H751.2V-21.31ZM751.2 -32.87H740.53V-43.53H751.2V-32.87ZM751.2 -44.44H740.53V-55.1H751.2V-44.44ZM752.08 176.17H762.75H752.08ZM762.75 175.27H752.08V164.61H762.75V175.27ZM762.75 163.71H752.08V153.05H762.75V163.71ZM762.75 152.15H752.08V141.49H762.75V152.15ZM762.75 140.58H752.08V129.92H762.75V140.58ZM762.75 129.02H752.08V118.36H762.75V129.02ZM762.75 117.46H752.08V106.8H762.75V117.46ZM762.75 105.88H752.08V95.22H762.75V105.88ZM762.75 94.32H752.08V83.66H762.75V94.32ZM762.75 82.76H752.08V72.1H762.75V82.76ZM762.75 71.19H752.08V60.53H762.75V71.19ZM762.75 59.63H752.08V48.97H762.75V59.63ZM762.75 48.07H752.08V37.41H762.75V48.07ZM762.75 36.51H752.08V25.85H762.75V36.51ZM762.75 24.94H752.08V14.28H762.75V24.94ZM762.75 13.38H752.08V2.72H762.75V13.38ZM762.75 1.82H752.08V-8.84H762.75V1.82ZM762.75 -9.75H752.08V-20.41H762.75V-9.75ZM762.75 -21.31H752.08V-31.97H762.75V-21.31ZM762.75 -32.87H752.08V-43.53H762.75V-32.87ZM762.75 -44.44H752.08V-55.1H762.75V-44.44ZM763.64 176.17H774.31H763.64ZM774.31 175.27H763.64V164.61H774.31V175.27ZM774.31 163.71H763.64V153.05H774.31V163.71ZM774.31 152.15H763.64V141.49H774.31V152.15ZM774.31 140.58H763.64V129.92H774.31V140.58ZM774.31 129.02H763.64V118.36H774.31V129.02ZM774.31 117.46H763.64V106.8H774.31V117.46ZM774.31 105.88H763.64V95.22H774.31V105.88ZM774.31 94.32H763.64V83.66H774.31V94.32ZM774.31 82.76H763.64V72.1H774.31V82.76ZM774.31 71.19H763.64V60.53H774.31V71.19ZM774.31 59.63H763.64V48.97H774.31V59.63ZM774.31 48.07H763.64V37.41H774.31V48.07ZM774.31 36.51H763.64V25.85H774.31V36.51ZM774.31 24.94H763.64V14.28H774.31V24.94ZM774.31 13.38H763.64V2.72H774.31V13.38ZM774.31 1.82H763.64V-8.84H774.31V1.82ZM774.31 -9.75H763.64V-20.41H774.31V-9.75ZM774.31 -21.31H763.64V-31.97H774.31V-21.31ZM774.31 -32.87H763.64V-43.53H774.31V-32.87ZM774.31 -44.44H763.64V-55.1H774.31V-44.44ZM775.2 176.17H785.87H775.2ZM785.87 175.27H775.2V164.61H785.87V175.27ZM785.87 163.71H775.2V153.05H785.87V163.71ZM785.87 152.15H775.2V141.49H785.87V152.15ZM785.87 140.58H775.2V129.92H785.87V140.58ZM785.87 129.02H775.2V118.36H785.87V129.02ZM785.87 117.46H775.2V106.8H785.87V117.46ZM785.87 105.88H775.2V95.22H785.87V105.88ZM785.87 94.32H775.2V83.66H785.87V94.32ZM785.87 82.76H775.2V72.1H785.87V82.76ZM785.87 71.19H775.2V60.53H785.87V71.19ZM785.87 59.63H775.2V48.97H785.87V59.63ZM785.87 48.07H775.2V37.41H785.87V48.07ZM785.87 36.51H775.2V25.85H785.87V36.51ZM785.87 24.94H775.2V14.28H785.87V24.94ZM785.87 13.38H775.2V2.72H785.87V13.38ZM785.87 1.82H775.2V-8.84H785.87V1.82ZM785.87 -9.75H775.2V-20.41H785.87V-9.75ZM785.87 -21.31H775.2V-31.97H785.87V-21.31ZM785.87 -32.87H775.2V-43.53H785.87V-32.87ZM785.87 -44.44H775.2V-55.1H785.87V-44.44ZM786.76 176.17H797.43H786.76ZM797.42 175.27H786.75V164.61H797.42V175.27ZM797.42 163.71H786.75V153.05H797.42V163.71ZM797.42 152.15H786.75V141.49H797.42V152.15ZM797.42 140.58H786.75V129.92H797.42V140.58ZM797.42 129.02H786.75V118.36H797.42V129.02ZM797.42 117.46H786.75V106.8H797.42V117.46ZM797.42 105.88H786.75V95.22H797.42V105.88ZM797.42 94.32H786.75V83.66H797.42V94.32ZM797.42 82.76H786.75V72.1H797.42V82.76ZM797.42 71.19H786.75V60.53H797.42V71.19ZM797.42 59.63H786.75V48.97H797.42V59.63ZM797.42 48.07H786.75V37.41H797.42V48.07ZM797.42 36.51H786.75V25.85H797.42V36.51ZM797.42 24.94H786.75V14.28H797.42V24.94ZM797.42 13.38H786.75V2.72H797.42V13.38ZM797.42 1.82H786.75V-8.84H797.42V1.82ZM797.42 -9.75H786.75V-20.41H797.42V-9.75ZM797.42 -21.31H786.75V-31.97H797.42V-21.31ZM797.42 -32.87H786.75V-43.53H797.42V-32.87ZM797.42 -44.44H786.75V-55.1H797.42V-44.44ZM798.31 176.17H808.98H798.31ZM808.98 175.27H798.31V164.61H808.98V175.27ZM808.98 163.71H798.31V153.05H808.98V163.71ZM808.98 152.15H798.31V141.49H808.98V152.15ZM808.98 140.58H798.31V129.92H808.98V140.58ZM808.98 129.02H798.31V118.36H808.98V129.02ZM808.98 117.46H798.31V106.8H808.98V117.46ZM808.98 105.88H798.31V95.22H808.98V105.88ZM808.98 94.32H798.31V83.66H808.98V94.32ZM808.98 82.76H798.31V72.1H808.98V82.76ZM808.98 71.19H798.31V60.53H808.98V71.19ZM808.98 59.63H798.31V48.97H808.98V59.63ZM808.98 48.07H798.31V37.41H808.98V48.07ZM808.98 36.51H798.31V25.85H808.98V36.51ZM808.98 24.94H798.31V14.28H808.98V24.94ZM808.98 13.38H798.31V2.72H808.98V13.38ZM808.98 1.82H798.31V-8.84H808.98V1.82ZM808.98 -9.75H798.31V-20.41H808.98V-9.75ZM808.98 -21.31H798.31V-31.97H808.98V-21.31ZM808.98 -32.87H798.31V-43.53H808.98V-32.87ZM808.98 -44.44H798.31V-55.1H808.98V-44.44ZM809.87 176.17H820.54H809.87ZM820.54 175.27H809.87V164.61H820.54V175.27ZM820.54 163.71H809.87V153.05H820.54V163.71ZM820.54 152.15H809.87V141.49H820.54V152.15ZM820.54 140.58H809.87V129.92H820.54V140.58ZM820.54 129.02H809.87V118.36H820.54V129.02ZM820.54 117.46H809.87V106.8H820.54V117.46ZM820.54 105.88H809.87V95.22H820.54V105.88ZM820.54 94.32H809.87V83.66H820.54V94.32ZM820.54 82.76H809.87V72.1H820.54V82.76ZM820.54 71.19H809.87V60.53H820.54V71.19ZM820.54 59.63H809.87V48.97H820.54V59.63ZM820.54 48.07H809.87V37.41H820.54V48.07ZM820.54 36.51H809.87V25.85H820.54V36.51ZM820.54 24.94H809.87V14.28H820.54V24.94ZM820.54 13.38H809.87V2.72H820.54V13.38ZM820.54 1.82H809.87V-8.84H820.54V1.82ZM820.54 -9.75H809.87V-20.41H820.54V-9.75ZM820.54 -21.31H809.87V-31.97H820.54V-21.31ZM820.54 -32.87H809.87V-43.53H820.54V-32.87ZM820.54 -44.44H809.87V-55.1H820.54V-44.44ZM821.43 176.17H832.1H821.43ZM832.1 175.27H821.43V164.61H832.1V175.27ZM832.1 163.71H821.43V153.05H832.1V163.71ZM832.1 152.15H821.43V141.49H832.1V152.15ZM832.1 140.58H821.43V129.92H832.1V140.58ZM832.1 129.02H821.43V118.36H832.1V129.02ZM832.1 117.46H821.43V106.8H832.1V117.46ZM832.1 105.88H821.43V95.22H832.1V105.88ZM832.1 94.32H821.43V83.66H832.1V94.32ZM832.1 82.76H821.43V72.1H832.1V82.76ZM832.1 71.19H821.43V60.53H832.1V71.19ZM832.1 59.63H821.43V48.97H832.1V59.63ZM832.1 48.07H821.43V37.41H832.1V48.07ZM832.1 36.51H821.43V25.85H832.1V36.51ZM832.1 24.94H821.43V14.28H832.1V24.94ZM832.1 13.38H821.43V2.72H832.1V13.38ZM832.1 1.82H821.43V-8.84H832.1V1.82ZM832.1 -9.75H821.43V-20.41H832.1V-9.75ZM832.1 -21.31H821.43V-31.97H832.1V-21.31ZM832.1 -32.87H821.43V-43.53H832.1V-32.87ZM832.1 -44.44H821.43V-55.1H832.1V-44.44ZM832.99 176.17H843.66H832.99ZM843.66 175.27H832.99V164.61H843.66V175.27ZM843.66 163.71H832.99V153.05H843.66V163.71ZM843.66 152.15H832.99V141.49H843.66V152.15ZM843.66 140.58H832.99V129.92H843.66V140.58ZM843.66 129.02H832.99V118.36H843.66V129.02ZM843.66 117.46H832.99V106.8H843.66V117.46ZM843.66 105.88H832.99V95.22H843.66V105.88ZM843.66 94.32H832.99V83.66H843.66V94.32ZM843.66 82.76H832.99V72.1H843.66V82.76ZM843.66 71.19H832.99V60.53H843.66V71.19ZM843.66 59.63H832.99V48.97H843.66V59.63ZM843.66 48.07H832.99V37.41H843.66V48.07ZM843.66 36.51H832.99V25.85H843.66V36.51ZM843.66 24.94H832.99V14.28H843.66V24.94ZM843.66 13.38H832.99V2.72H843.66V13.38ZM843.66 1.82H832.99V-8.84H843.66V1.82ZM843.66 -9.75H832.99V-20.41H843.66V-9.75ZM843.66 -21.31H832.99V-31.97H843.66V-21.31ZM843.66 -32.87H832.99V-43.53H843.66V-32.87ZM843.66 -44.44H832.99V-55.1H843.66V-44.44ZM844.55 176.17H855.22H844.55ZM855.21 175.27H844.54V164.61H855.21V175.27ZM855.21 163.71H844.54V153.05H855.21V163.71ZM855.21 152.15H844.54V141.49H855.21V152.15ZM855.21 140.58H844.54V129.92H855.21V140.58ZM855.21 129.02H844.54V118.36H855.21V129.02ZM855.21 117.46H844.54V106.8H855.21V117.46ZM855.21 105.88H844.54V95.22H855.21V105.88ZM855.21 94.32H844.54V83.66H855.21V94.32ZM855.21 82.76H844.54V72.1H855.21V82.76ZM855.21 71.19H844.54V60.53H855.21V71.19ZM855.21 59.63H844.54V48.97H855.21V59.63ZM855.21 48.07H844.54V37.41H855.21V48.07ZM855.21 36.51H844.54V25.85H855.21V36.51ZM855.21 24.94H844.54V14.28H855.21V24.94ZM855.21 13.38H844.54V2.72H855.21V13.38ZM855.21 1.82H844.54V-8.84H855.21V1.82ZM855.21 -9.75H844.54V-20.41H855.21V-9.75ZM855.21 -21.31H844.54V-31.97H855.21V-21.31ZM855.21 -32.87H844.54V-43.53H855.21V-32.87ZM855.21 -44.44H844.54V-55.1H855.21V-44.44ZM856.09 176.17H866.76H856.09ZM866.76 175.27H856.09V164.61H866.76V175.27ZM866.76 163.71H856.09V153.05H866.76V163.71ZM866.76 152.15H856.09V141.49H866.76V152.15ZM866.76 140.58H856.09V129.92H866.76V140.58ZM866.76 129.02H856.09V118.36H866.76V129.02ZM866.76 117.46H856.09V106.8H866.76V117.46ZM866.76 105.88H856.09V95.22H866.76V105.88ZM866.76 94.32H856.09V83.66H866.76V94.32ZM866.76 82.76H856.09V72.1H866.76V82.76ZM866.76 71.19H856.09V60.53H866.76V71.19ZM866.76 59.63H856.09V48.97H866.76V59.63ZM866.76 48.07H856.09V37.41H866.76V48.07ZM866.76 36.51H856.09V25.85H866.76V36.51ZM866.76 24.94H856.09V14.28H866.76V24.94ZM866.76 13.38H856.09V2.72H866.76V13.38ZM866.76 1.82H856.09V-8.84H866.76V1.82ZM866.76 -9.75H856.09V-20.41H866.76V-9.75ZM866.76 -21.31H856.09V-31.97H866.76V-21.31ZM866.76 -32.87H856.09V-43.53H866.76V-32.87ZM866.76 -44.44H856.09V-55.1H866.76V-44.44ZM867.65 176.17H878.32H867.65ZM878.32 175.27H867.65V164.61H878.32V175.27ZM878.32 163.71H867.65V153.05H878.32V163.71ZM878.32 152.15H867.65V141.49H878.32V152.15ZM878.32 140.58H867.65V129.92H878.32V140.58ZM878.32 129.02H867.65V118.36H878.32V129.02ZM878.32 117.46H867.65V106.8H878.32V117.46ZM878.32 105.88H867.65V95.22H878.32V105.88ZM878.32 94.32H867.65V83.66H878.32V94.32ZM878.32 82.76H867.65V72.1H878.32V82.76ZM878.32 71.19H867.65V60.53H878.32V71.19ZM878.32 59.63H867.65V48.97H878.32V59.63ZM878.32 48.07H867.65V37.41H878.32V48.07ZM878.32 36.51H867.65V25.85H878.32V36.51ZM878.32 24.94H867.65V14.28H878.32V24.94ZM878.32 13.38H867.65V2.72H878.32V13.38ZM878.32 1.82H867.65V-8.84H878.32V1.82ZM878.32 -9.75H867.65V-20.41H878.32V-9.75ZM878.32 -21.31H867.65V-31.97H878.32V-21.31ZM878.32 -32.87H867.65V-43.53H878.32V-32.87ZM878.32 -44.44H867.65V-55.1H878.32V-44.44ZM879.21 176.17H889.88H879.21ZM889.88 175.27H879.21V164.61H889.88V175.27ZM889.88 163.71H879.21V153.05H889.88V163.71ZM889.88 152.15H879.21V141.49H889.88V152.15ZM889.88 140.58H879.21V129.92H889.88V140.58ZM889.88 129.02H879.21V118.36H889.88V129.02ZM889.88 117.46H879.21V106.8H889.88V117.46ZM889.88 105.88H879.21V95.22H889.88V105.88ZM889.88 94.32H879.21V83.66H889.88V94.32ZM889.88 82.76H879.21V72.1H889.88V82.76ZM889.88 71.19H879.21V60.53H889.88V71.19ZM889.88 59.63H879.21V48.97H889.88V59.63ZM889.88 48.07H879.21V37.41H889.88V48.07ZM889.88 36.51H879.21V25.85H889.88V36.51ZM889.88 24.94H879.21V14.28H889.88V24.94ZM889.88 13.38H879.21V2.72H889.88V13.38ZM889.88 1.82H879.21V-8.84H889.88V1.82ZM889.88 -9.75H879.21V-20.41H889.88V-9.75ZM889.88 -21.31H879.21V-31.97H889.88V-21.31ZM889.88 -32.87H879.21V-43.53H889.88V-32.87ZM889.88 -44.44H879.21V-55.1H889.88V-44.44ZM890.77 176.17H901.44H890.77ZM901.44 175.27H890.77V164.61H901.44V175.27ZM901.44 163.71H890.77V153.05H901.44V163.71ZM901.44 152.15H890.77V141.49H901.44V152.15ZM901.44 140.58H890.77V129.92H901.44V140.58ZM901.44 129.02H890.77V118.36H901.44V129.02ZM901.44 117.46H890.77V106.8H901.44V117.46ZM901.44 105.88H890.77V95.22H901.44V105.88ZM901.44 94.32H890.77V83.66H901.44V94.32ZM901.44 82.76H890.77V72.1H901.44V82.76ZM901.44 71.19H890.77V60.53H901.44V71.19ZM901.44 59.63H890.77V48.97H901.44V59.63ZM901.44 48.07H890.77V37.41H901.44V48.07ZM901.44 36.51H890.77V25.85H901.44V36.51ZM901.44 24.94H890.77V14.28H901.44V24.94ZM901.44 13.38H890.77V2.72H901.44V13.38ZM901.44 1.82H890.77V-8.84H901.44V1.82ZM901.44 -9.75H890.77V-20.41H901.44V-9.75ZM901.44 -21.31H890.77V-31.97H901.44V-21.31ZM901.44 -32.87H890.77V-43.53H901.44V-32.87ZM901.44 -44.44H890.77V-55.1H901.44V-44.44ZM902.33 176.17H913H902.33ZM912.99 175.27H902.32V164.61H912.99V175.27ZM912.99 163.71H902.32V153.05H912.99V163.71ZM912.99 152.15H902.32V141.49H912.99V152.15ZM912.99 140.58H902.32V129.92H912.99V140.58ZM912.99 129.02H902.32V118.36H912.99V129.02ZM912.99 117.46H902.32V106.8H912.99V117.46ZM912.99 105.88H902.32V95.22H912.99V105.88ZM912.99 94.32H902.32V83.66H912.99V94.32ZM912.99 82.76H902.32V72.1H912.99V82.76ZM912.99 71.19H902.32V60.53H912.99V71.19ZM912.99 59.63H902.32V48.97H912.99V59.63ZM912.99 48.07H902.32V37.41H912.99V48.07ZM912.99 36.51H902.32V25.85H912.99V36.51ZM912.99 24.94H902.32V14.28H912.99V24.94ZM912.99 13.38H902.32V2.72H912.99V13.38ZM912.99 1.82H902.32V-8.84H912.99V1.82ZM912.99 -9.75H902.32V-20.41H912.99V-9.75ZM912.99 -21.31H902.32V-31.97H912.99V-21.31ZM912.99 -32.87H902.32V-43.53H912.99V-32.87ZM912.99 -44.44H902.32V-55.1H912.99V-44.44ZM913.88 176.17H924.55H913.88ZM924.55 175.27H913.88V164.61H924.55V175.27ZM924.55 163.71H913.88V153.05H924.55V163.71ZM924.55 152.15H913.88V141.49H924.55V152.15ZM924.55 140.58H913.88V129.92H924.55V140.58ZM924.55 129.02H913.88V118.36H924.55V129.02ZM924.55 117.46H913.88V106.8H924.55V117.46ZM924.55 105.88H913.88V95.22H924.55V105.88ZM924.55 94.32H913.88V83.66H924.55V94.32ZM924.55 82.76H913.88V72.1H924.55V82.76ZM924.55 71.19H913.88V60.53H924.55V71.19ZM924.55 59.63H913.88V48.97H924.55V59.63ZM924.55 48.07H913.88V37.41H924.55V48.07ZM924.55 36.51H913.88V25.85H924.55V36.51ZM924.55 24.94H913.88V14.28H924.55V24.94ZM924.55 13.38H913.88V2.72H924.55V13.38ZM924.55 1.82H913.88V-8.84H924.55V1.82ZM924.55 -9.75H913.88V-20.41H924.55V-9.75ZM924.55 -21.31H913.88V-31.97H924.55V-21.31ZM924.55 -32.87H913.88V-43.53H924.55V-32.87ZM924.55 -44.44H913.88V-55.1H924.55V-44.44ZM925.44 176.17H936.11H925.44ZM936.11 175.27H925.44V164.61H936.11V175.27ZM936.11 163.71H925.44V153.05H936.11V163.71ZM936.11 152.15H925.44V141.49H936.11V152.15ZM936.11 140.58H925.44V129.92H936.11V140.58ZM936.11 129.02H925.44V118.36H936.11V129.02ZM936.11 117.46H925.44V106.8H936.11V117.46ZM936.11 105.88H925.44V95.22H936.11V105.88ZM936.11 94.32H925.44V83.66H936.11V94.32ZM936.11 82.76H925.44V72.1H936.11V82.76ZM936.11 71.19H925.44V60.53H936.11V71.19ZM936.11 59.63H925.44V48.97H936.11V59.63ZM936.11 48.07H925.44V37.41H936.11V48.07ZM936.11 36.51H925.44V25.85H936.11V36.51ZM936.11 24.94H925.44V14.28H936.11V24.94ZM936.11 13.38H925.44V2.72H936.11V13.38ZM936.11 1.82H925.44V-8.84H936.11V1.82ZM936.11 -9.75H925.44V-20.41H936.11V-9.75ZM936.11 -21.31H925.44V-31.97H936.11V-21.31ZM936.11 -32.87H925.44V-43.53H936.11V-32.87ZM936.11 -44.44H925.44V-55.1H936.11V-44.44Z" fill="url(#paint0_radial_16_649)"/>
    <defs>
    <radialGradient id="paint0_radial_16_649" cx="0" cy="0" r="1" gradientUnits="userSpaceOnUse" gradientTransform="translate(474.077 171.647) scale(403.935 196.392)">
    <stop stop-color="#7EB6CA" stop-opacity="0.16"/>
    <stop offset="1" stop-opacity="0"/>
    </radialGradient>
    </defs>
</svg>